<?xml version="1.0" standalone="no"?>
<!DOCTYPE svg PUBLIC "-//W3C//DTD SVG 20010904//EN"
 "http://www.w3.org/TR/2001/REC-SVG-20010904/DTD/svg10.dtd">
<svg version="1.0" xmlns="http://www.w3.org/2000/svg"
 width="1833.000000pt" height="585.000000pt" viewBox="0 0 1833.000000 585.000000"
 preserveAspectRatio="xMidYMid meet">

<g transform="translate(0.000000,585.000000) scale(0.100000,-0.100000)"
fill="#000000" stroke="none">
<path d="M9068 5803 c-9 -10 -23 -34 -32 -53 -14 -29 -14 -31 -1 -16 8 11 15
24 15 30 0 6 3 6 9 1 13 -14 1 -66 -16 -72 -8 -3 -18 -1 -22 5 -3 5 -95 -164
-204 -377 -199 -391 -217 -437 -185 -469 14 -14 124 -16 133 -2 9 15 51 12 65
-4 9 -12 4 -27 -30 -75 l-41 -61 -78 0 c-101 0 -111 -10 -111 -106 0 -80 -9
-94 -60 -94 -41 0 -60 -14 -60 -45 0 -12 -10 -31 -23 -43 l-23 -22 -1565 0
c-1204 0 -1568 3 -1577 12 -7 7 -12 21 -12 33 0 26 -80 105 -176 174 l-72 51
-133 0 c-74 1 -876 -25 -1784 -56 l-1650 -57 -47 -46 c-34 -32 -48 -53 -48
-72 0 -15 -6 -31 -13 -37 -7 -6 -57 -13 -111 -14 -82 -3 -100 -6 -107 -20 -5
-10 -13 -26 -18 -35 -6 -14 -23 -19 -82 -21 -40 -2 -79 -8 -86 -14 -10 -8 -13
-65 -13 -242 0 -244 -2 -256 -46 -256 -35 0 -43 -21 -46 -126 -2 -80 -6 -99
-18 -99 -13 0 -15 48 -18 360 l-2 360 -42 42 -42 43 -224 0 -224 0 -66 -39
c-118 -69 -106 -21 -131 -531 -12 -245 -21 -547 -21 -673 l0 -227 135 -468
c152 -525 130 -476 278 -600 79 -66 111 -80 188 -81 96 -2 91 -23 128 469 40
520 37 505 76 505 l30 0 3 -80 c2 -43 6 -84 11 -90 9 -12 6 -163 -3 -172 -3
-4 -6 -137 -6 -298 0 -213 3 -294 12 -303 8 -8 48 -12 115 -12 l103 0 154 100
153 100 69 0 c41 0 75 -5 82 -12 16 -16 16 -150 0 -166 -7 -7 -42 -12 -86 -12
-73 0 -74 0 -195 -71 -68 -39 -145 -93 -174 -122 l-53 -51 0 -118 c0 -111 1
-118 23 -132 12 -8 200 -71 417 -141 247 -80 403 -135 418 -148 21 -19 22 -28
22 -152 0 -124 1 -133 23 -152 12 -11 183 -86 379 -166 l357 -147 514 0 513 0
27 28 c24 25 27 36 27 95 l0 67 -72 48 c-77 50 -96 84 -63 112 13 10 30 7 103
-20 127 -47 122 -40 122 -190 0 -108 3 -129 18 -142 9 -8 168 -77 352 -153
184 -75 352 -146 372 -156 34 -17 63 -19 341 -19 259 0 306 -2 317 -15 17 -21
128 -19 253 4 114 20 139 39 213 157 40 64 44 77 44 132 0 60 7 76 230 538
126 263 237 488 245 500 9 14 42 31 97 49 46 15 93 34 106 41 30 20 29 73 -3
128 -31 53 -75 180 -75 216 0 15 16 61 35 103 28 61 44 81 80 106 44 29 51 31
145 31 98 0 99 0 112 27 l13 28 401 3 c390 2 401 2 419 -18 16 -18 31 -20 135
-20 l116 0 38 39 c32 32 39 49 49 107 15 84 21 94 56 94 15 0 36 9 46 20 21
24 67 26 85 5 11 -13 73 -15 449 -15 l436 0 105 -105 105 -105 265 2 265 3 3
243 c2 194 5 242 16 242 10 0 14 -33 18 -144 l6 -144 57 -103 c31 -57 64 -111
72 -120 13 -15 5 -26 -81 -109 l-96 -93 0 -67 c0 -84 14 -100 87 -100 46 0 60
6 131 55 44 30 84 55 89 55 6 0 18 -9 29 -21 10 -12 45 -34 76 -50 l57 -29
314 0 c267 0 316 -2 327 -15 11 -13 183 -15 1440 -15 1257 0 1429 2 1440 15
10 13 51 15 246 15 l233 0 54 68 c51 62 56 73 73 162 10 52 22 101 27 107 7
10 54 13 176 13 l167 0 26 27 c14 16 35 57 48 93 39 110 39 110 129 110 58 0
82 4 91 15 16 20 98 20 120 0 9 -8 68 -30 131 -50 113 -35 115 -35 305 -35
146 0 194 3 203 13 6 7 18 45 27 83 19 83 15 276 -7 339 l-14 40 -214 3 -215
2 -95 -31 c-53 -17 -103 -38 -112 -45 -18 -16 -115 -19 -124 -4 -3 6 -19 10
-36 10 -22 0 -29 5 -29 19 0 10 32 110 70 221 70 201 70 202 70 309 0 70 4
111 12 119 9 9 105 12 368 12 l357 0 24 27 c13 14 19 23 13 20 -18 -10 -20 10
-14 113 3 52 5 96 4 98 -2 4 -945 13 -1298 12 -286 0 -288 0 -283 21 3 11 1
19 -5 17 -5 -2 -9 -8 -9 -13 0 -6 -7 -17 -14 -25 -13 -15 -15 -19 -15 -40 0
-5 -4 -10 -10 -10 -5 0 -10 20 -10 44 0 41 -4 47 -48 85 l-49 40 -6 157 -7
157 45 48 c45 48 45 48 46 126 2 59 3 69 8 38 5 -32 11 -41 29 -43 15 -2 22
-10 22 -25 0 -17 2 -19 9 -8 14 23 87 -8 83 -35 -3 -15 -1 -17 9 -6 15 14 49
16 49 2 0 -5 -7 -10 -15 -10 -8 0 -15 -3 -15 -8 0 -4 -15 -14 -32 -21 -18 -8
-40 -24 -49 -35 -21 -25 -33 -124 -20 -158 6 -17 6 -29 0 -35 -7 -7 2 -21 28
-42 33 -27 45 -31 100 -31 55 0 65 3 88 28 15 15 31 37 36 50 4 12 15 22 24
22 17 0 20 -16 4 -25 -6 -4 11 -27 41 -55 29 -27 49 -53 46 -58 -3 -5 0 -15 8
-21 10 -9 16 -8 26 4 31 37 41 1 13 -47 -18 -29 -18 -30 6 -49 24 -20 57 -21
156 -5 93 16 145 16 179 2 45 -19 259 -21 287 -3 14 9 21 9 31 -1 8 -8 47 -12
123 -11 68 1 95 4 70 8 -26 4 -40 11 -41 21 0 8 -7 27 -14 43 -10 21 -11 38
-2 75 7 34 7 49 -1 54 -6 4 -8 10 -4 14 4 4 16 -5 27 -19 32 -40 65 -19 110
70 13 26 30 45 44 49 23 5 64 79 51 92 -3 3 -9 1 -13 -5 -11 -18 -66 -1 -70
21 -2 10 2 17 10 15 40 -5 52 17 23 41 -8 7 -12 16 -10 21 3 4 -95 9 -217 11
-295 4 -696 -5 -680 -15 17 -11 15 -37 -3 -37 -8 0 -15 4 -15 9 0 5 -12 17
-27 26 -34 23 -102 24 -115 1 -6 -10 -22 -16 -46 -16 -28 0 -33 3 -22 10 13 8
12 10 -3 10 -10 0 -28 -5 -39 -11 -28 -15 -49 5 -28 26 11 10 48 15 134 18 96
3 121 7 131 20 15 20 37 23 29 3 -8 -20 41 -23 296 -20 124 1 234 2 245 1 79
-6 449 4 490 14 28 7 56 12 63 12 8 0 12 19 12 59 0 45 -3 58 -15 58 -8 0 -15
5 -15 11 0 6 12 9 28 7 26 -3 27 -5 34 -88 10 -126 9 -578 -2 -709 -10 -116
-8 -153 5 -84 11 60 17 63 130 63 114 0 127 6 140 70 10 49 21 59 103 97 69
31 79 33 186 33 118 0 136 -6 136 -45 0 -11 7 -31 16 -43 14 -20 23 -22 108
-22 71 0 97 -4 106 -15 16 -19 64 -19 80 0 10 12 38 15 133 15 98 0 124 3 139
17 17 15 19 15 36 0 17 -15 70 -17 551 -17 l532 0 21 47 c17 38 22 74 26 200
6 187 -6 263 -51 311 l-31 32 -517 0 c-451 0 -518 -2 -529 -15 -12 -14 -15
-14 -30 0 -13 12 -44 15 -142 15 -99 0 -128 3 -138 15 -7 8 -20 15 -30 15 -10
0 -23 -7 -30 -15 -9 -11 -35 -15 -104 -15 -84 0 -95 -2 -114 -23 -12 -13 -22
-30 -22 -38 0 -33 -23 -39 -149 -39 -125 0 -126 1 -201 38 -74 36 -75 38 -78
78 -5 69 -29 83 -151 86 l-104 3 -19 34 c-10 18 -45 68 -76 110 -84 111 -96
131 -78 131 8 0 18 -4 21 -10 3 -5 37 -10 74 -10 61 0 70 3 93 28 58 63 68 87
68 159 0 64 -3 74 -38 124 l-38 54 -80 3 c-70 2 -83 0 -99 -18 -24 -26 -71
-26 -85 0 -9 18 -21 20 -97 20 -84 0 -88 1 -122 33 l-35 32 30 -35 c96 -115
142 -163 162 -171 12 -5 22 -17 22 -28 0 -10 7 -24 15 -31 23 -19 20 -70 -4
-70 -10 0 -21 7 -24 14 -8 21 -497 21 -497 1 0 -16 -32 -14 -43 3 -4 6 -26 12
-49 12 -38 0 -40 -1 -35 -27 3 -15 0 -37 -6 -50 -8 -17 -7 -27 1 -35 22 -22
14 -40 -15 -36 -30 3 -31 12 -17 111 5 29 2 37 -10 37 -19 0 -23 -6 -30 -55
-9 -58 -16 -76 -27 -70 -5 3 -6 33 -2 65 4 44 3 60 -6 60 -8 0 -10 -8 -6 -22
l7 -23 -19 21 c-17 17 -34 21 -115 23 l-95 2 2 -30 c1 -25 -2 -31 -18 -31 -16
0 -17 -3 -7 -15 6 -8 9 -19 5 -25 -10 -16 -108 -2 -118 16 -4 8 -14 14 -21 14
-8 0 -17 7 -20 16 -4 11 -13 13 -27 9 -19 -6 -21 -4 -17 19 6 30 24 28 -207
31 -517 7 -653 7 -663 1 -6 -3 -8 -21 -6 -39 4 -19 -1 -44 -10 -62 -18 -34
-21 -87 -6 -115 12 -22 -5 -39 -22 -22 -14 14 -16 49 -23 480 -5 298 -4 397 6
408 9 11 7 14 -13 14 -28 0 -48 -17 -48 -42 0 -13 -8 -18 -26 -18 l-26 0 7
-267 c4 -148 9 -271 12 -276 8 -13 -9 -97 -18 -91 -5 3 -9 -5 -9 -18 l0 -23
-20 25 c-12 16 -15 29 -9 36 6 8 2 13 -13 18 -34 9 -45 7 -28 -4 10 -6 11 -10
3 -10 -7 0 -13 -5 -13 -11 0 -5 6 -7 13 -3 6 4 4 -2 -6 -14 -26 -29 -48 -18
-40 19 l6 29 -77 0 c-69 0 -76 -2 -76 -20 0 -11 4 -20 8 -20 21 0 47 -116 32
-140 -12 -19 -40 -4 -40 20 0 12 -7 28 -15 36 -13 14 -15 13 -15 -10 0 -14 -4
-26 -10 -26 -5 0 -10 -4 -10 -9 0 -5 8 -8 18 -7 10 0 17 -6 16 -16 -2 -21 65
-31 73 -11 7 17 29 17 36 0 3 -8 25 -14 53 -16 68 -3 131 -61 68 -61 -17 0
-28 6 -31 20 -3 12 -14 20 -27 21 -11 0 -71 3 -132 5 l-112 5 -33 -29 c-28
-23 -39 -27 -61 -21 -16 4 -30 3 -34 -2 -3 -5 -65 -9 -139 -9 -143 0 -145 1
-145 56 0 14 -4 23 -9 20 -14 -9 -41 4 -41 20 0 8 -3 14 -7 14 -10 0 -33 50
-33 71 0 10 -9 21 -20 24 -22 7 -26 35 -8 53 10 10 5 11 -20 6 -34 -7 -47 11
-14 19 9 3 -8 5 -38 5 -45 0 -49 -2 -25 -8 29 -8 29 -8 -10 -10 l-40 -3 35 -4
c33 -4 67 -22 39 -20 -47 2 -49 -1 -49 -65 0 -90 -16 -106 -25 -27 -4 35 -12
70 -18 77 -18 23 -18 50 1 55 22 6 -94 9 -403 9 -172 0 -250 -3 -253 -11 -6
-18 -19 -12 -26 12 -6 21 -7 21 -18 3 -6 -10 -13 -59 -16 -108 -6 -101 -22
-119 -22 -24 0 70 -17 92 -37 47 -10 -23 -11 -19 -11 38 0 35 4 58 8 51 8 -13
20 19 20 57 0 12 6 24 13 26 7 3 5 6 -5 6 -10 1 -18 4 -19 9 -8 108 6 161 24
90 5 -18 15 -40 22 -48 8 -8 12 -27 11 -42 -2 -15 1 -25 5 -22 5 3 9 1 9 -5 0
-6 11 -6 33 1 17 5 41 12 52 14 l20 4 -20 -9 c-27 -13 -38 -12 285 -10 157 1
299 1 315 1 17 0 77 -2 134 -5 105 -6 135 -2 125 14 -3 5 3 9 13 9 16 0 18 9
17 80 -1 44 -7 87 -13 94 -8 9 -8 16 -2 20 5 4 9 39 8 80 -2 59 -5 72 -16 68
-11 -4 -13 -1 -7 14 5 10 11 38 13 62 5 36 3 41 -11 36 -9 -3 -16 -10 -16 -15
0 -5 -4 -9 -10 -9 -5 0 -10 16 -10 35 0 31 -3 35 -25 35 -24 0 -24 -1 -28 -97
l-3 -98 -2 98 -2 97 -50 0 c-53 0 -53 0 -50 -60 1 -24 9 -41 26 -53 13 -11 23
-28 23 -40 -1 -17 -2 -18 -6 -4 -8 31 -57 18 -66 -18 -4 -19 -5 -18 -6 2 -1
24 -28 37 -55 27 -24 -9 -21 -38 4 -31 11 3 20 2 20 -1 -1 -10 -37 -52 -44
-52 -11 0 -6 86 6 98 9 9 9 12 0 12 -7 0 -12 -4 -12 -9 0 -15 -31 -21 -43 -8
-7 6 -13 24 -14 40 -1 39 -10 57 -27 57 -8 0 -36 10 -63 22 -26 11 -55 20 -64
19 -9 -1 -19 5 -22 14 -9 22 -27 19 -27 -5 0 -11 -7 -20 -15 -20 -8 0 -20 -9
-27 -20 -15 -24 -38 -26 -38 -5 0 9 -12 21 -27 27 l-28 12 26 3 c21 3 25 8 22
27 -4 18 1 25 19 31 12 4 26 7 31 6 4 -1 7 3 7 9 0 11 31 2 45 -14 6 -6 23
-18 38 -25 27 -14 29 -13 52 13 23 27 25 27 42 11 17 -17 18 -17 24 6 6 19 7
15 8 -17 1 -28 6 -44 17 -48 24 -9 44 -7 44 4 0 6 -7 10 -15 10 -8 0 -17 12
-20 28 -4 15 -13 39 -21 55 -14 25 -14 27 3 27 15 0 16 2 3 10 -9 6 -17 5 -21
-2 -4 -6 -20 -8 -38 -5 -27 6 -33 3 -41 -19 -8 -21 -13 -23 -30 -14 -11 6 -25
8 -30 5 -6 -3 -10 -1 -10 4 0 6 5 11 10 11 6 0 10 11 10 24 0 20 -7 24 -42 31
-24 4 -59 8 -79 9 -41 3 -62 13 -53 27 3 5 9 7 13 4 5 -2 52 -7 104 -9 53 -3
106 -10 118 -16 15 -9 24 -9 32 -1 6 6 29 11 51 12 l41 1 -35 10 c-19 6 -165
12 -325 14 -283 4 -289 3 -251 -14 32 -15 36 -20 23 -30 -8 -7 -21 -10 -28 -7
-16 6 -43 -48 -39 -80 2 -20 2 -20 -13 0 -9 12 -13 32 -10 51 4 26 1 33 -16
39 -29 9 -26 21 7 33 22 9 11 11 -59 11 -96 1 -109 -6 -109 -59 0 -20 -5 -41
-12 -48 -17 -17 -379 -17 -396 0 -8 8 -12 52 -12 133 0 182 54 160 -560 224
-278 28 -524 51 -546 51 -30 0 -45 -6 -55 -20 -14 -20 -14 -20 -229 0 -281 26
-441 27 -462 3z m122 -13 c0 -6 -11 -8 -27 -4 -40 10 -41 14 -5 14 18 0 32 -5
32 -10z m130 0 c0 -6 -7 -13 -15 -16 -8 -4 -15 -15 -15 -26 0 -10 -4 -17 -10
-13 -5 3 -6 13 -3 22 5 12 2 15 -10 10 -17 -6 -24 13 -10 26 10 11 63 8 63 -3z
m180 -16 c116 -18 111 -18 131 -10 46 20 59 -79 14 -100 -27 -13 -35 -3 -35
42 0 23 -1 24 -24 9 -15 -10 -26 -29 -30 -55 -9 -58 -24 -58 -32 2 l-7 53 -11
-40 c-12 -42 -29 -52 -34 -19 -6 30 -19 39 -37 24 -21 -17 -35 1 -35 45 0 40
-16 66 -29 46 -7 -11 -11 -9 -21 9 -12 22 -11 22 21 16 19 -4 77 -14 129 -22z
m397 -32 c12 -26 31 -76 43 -112 36 -106 50 -130 74 -130 13 0 28 -10 35 -23
13 -25 51 -53 51 -38 0 6 -4 13 -10 16 -5 3 -10 11 -10 17 0 6 6 5 16 -3 15
-13 12 -54 -6 -73 -10 -10 -108 42 -120 63 -4 9 -11 32 -15 51 -4 19 -13 42
-19 50 -12 14 -76 201 -76 220 0 23 17 6 37 -38z m276 13 c43 -5 57 -10 53
-20 -2 -7 4 -15 14 -18 14 -3 18 0 15 13 -4 21 22 35 39 22 6 -5 43 -12 81
-16 39 -3 133 -13 210 -21 77 -8 168 -18 203 -22 l63 -6 -6 -47 c-5 -35 -3
-49 9 -59 13 -11 14 -5 9 43 -6 56 1 68 25 44 15 -15 16 -98 1 -98 -7 0 -9
-23 -7 -62 l3 -63 -108 -3 c-104 -3 -108 -2 -117 20 -5 13 -9 18 -9 12 -1 -8
-14 -9 -41 -4 -38 7 -41 6 -47 -18 -6 -24 -7 -25 -14 -7 -7 18 -8 18 -8 -3 -1
-24 0 -24 93 -20 52 1 98 0 102 -4 4 -5 34 -8 67 -8 33 0 58 -2 55 -6 -3 -3
-118 -5 -254 -5 -382 -1 -448 0 -440 9 9 8 2 8 214 10 83 1 152 5 152 10 0 4
-5 14 -10 22 -7 11 -12 12 -17 3 -13 -18 -69 -21 -58 -3 4 6 -21 10 -67 10
-51 0 -68 -3 -58 -10 13 -8 12 -10 -2 -10 -10 0 -18 4 -18 9 0 5 -8 12 -17 14
-10 3 11 5 46 6 35 0 61 4 58 7 -3 4 -30 6 -60 5 l-53 -1 -1 41 c-2 38 0 41
22 37 16 -3 22 -1 18 8 -2 6 0 15 6 19 20 12 11 25 -17 25 -16 0 -32 3 -36 8
-4 4 -25 7 -45 7 -33 1 -46 9 -97 60 -32 33 -59 62 -59 65 0 2 -7 3 -17 2 -9
-2 -19 2 -23 9 -6 8 6 10 41 6 27 -4 75 -9 107 -12z m-816 -37 c-3 -8 -6 -5
-6 6 -1 11 2 17 5 13 3 -3 4 -12 1 -19z m-272 -35 c-4 -10 -10 -39 -12 -65 -4
-37 -9 -48 -23 -48 -15 0 -17 6 -12 43 5 44 27 87 44 87 6 0 7 -8 3 -17z m158
-10 c-8 -44 -169 -361 -179 -351 -2 2 23 58 55 123 32 66 62 131 66 145 11 37
48 110 55 110 4 0 5 -12 3 -27z m877 -23 c0 -5 -4 -10 -10 -10 -5 0 -10 5 -10
10 0 6 5 10 10 10 6 0 10 -4 10 -10z m-255 -150 c7 -22 6 -23 -9 -11 -9 7 -16
23 -16 34 0 26 15 12 25 -23z m-449 15 c5 -12 10 -13 20 -4 15 13 53 3 55 -14
1 -7 2 -19 3 -27 0 -8 13 -21 29 -28 15 -7 27 -17 27 -22 0 -18 -13 -40 -22
-40 -6 0 -17 -8 -24 -17 -12 -17 -14 -17 -26 -2 -16 20 -48 32 -48 19 0 -20
-42 -10 -47 11 -4 14 -12 19 -24 16 -29 -8 -24 29 6 49 14 9 23 20 20 24 -3 5
1 11 7 14 7 3 3 3 -9 0 -25 -6 -26 -4 -17 20 8 20 43 21 50 1z m420 -42 c-12
-12 -29 15 -21 34 7 17 8 16 18 -5 5 -12 7 -25 3 -29z m-303 3 c6 -15 -1 -26
-15 -26 -4 0 -8 9 -8 20 0 23 15 27 23 6z m107 -16 c0 -5 -4 -10 -10 -10 -5 0
-10 5 -10 10 0 6 5 10 10 10 6 0 10 -4 10 -10z m778 -17 c-10 -2 -26 -2 -35 0
-10 3 -2 5 17 5 19 0 27 -2 18 -5z m-1452 -30 c-4 -4 -12 -1 -19 7 -9 10 -9
11 1 6 7 -4 12 -2 13 6 0 11 2 11 6 0 3 -7 2 -16 -1 -19z m2983 8 c11 -7 10
-11 -6 -20 -22 -11 -33 -6 -33 16 0 15 18 17 39 4z m-1814 -11 c3 -5 1 -10 -4
-10 -6 0 -11 5 -11 10 0 6 2 10 4 10 3 0 8 -4 11 -10z m-1235 -14 c0 -3 -4 -8
-10 -11 -5 -3 -10 -1 -10 4 0 6 5 11 10 11 6 0 10 -2 10 -4z m35 -67 c-19 -36
-23 -54 -16 -63 15 -18 2 -27 -20 -15 -26 13 -24 21 14 79 42 65 54 64 22 -1z
m2833 4 c-2 -33 -7 -48 -17 -48 -8 0 -15 -10 -16 -22 -1 -13 4 -23 12 -23 13
0 13 -25 0 -47 -4 -6 -25 -14 -47 -18 -25 -4 -40 -12 -40 -21 0 -8 -7 -14 -15
-14 -8 0 -15 7 -15 15 0 9 7 18 15 21 8 4 15 12 15 19 0 7 6 16 13 18 6 3 2 6
-10 6 -13 1 -23 6 -23 12 0 6 6 9 13 6 14 -5 41 20 28 27 -5 3 -11 17 -13 31
-6 28 10 33 42 13 25 -16 38 -3 22 23 -15 23 -1 49 25 49 11 0 13 -12 11 -47z
m-63 27 c3 -5 1 -10 -4 -10 -6 0 -11 5 -11 10 0 6 2 10 4 10 3 0 8 -4 11 -10z
m-245 -14 c0 -16 -18 -31 -27 -22 -8 8 5 36 17 36 5 0 10 -6 10 -14z m89 -107
c1 -79 3 -87 24 -98 12 -6 14 -9 5 -7 -17 5 -22 -2 -19 -34 0 -8 -3 -21 -8
-29 -17 -26 -31 0 -31 57 0 41 -3 53 -10 42 -12 -18 -12 -3 -1 25 5 11 5 27 0
36 -5 10 -2 39 8 74 21 74 31 53 32 -66z m-2226 81 c-4 -16 -8 -18 -19 -9 -11
9 -11 15 -3 25 15 19 28 9 22 -16z m2177 0 c0 -5 -7 -10 -15 -10 -8 0 -15 5
-15 10 0 6 7 10 15 10 8 0 15 -4 15 -10z m-2443 -32 c-3 -8 -6 -5 -6 6 -1 11
2 17 5 13 3 -3 4 -12 1 -19z m1953 18 c0 -2 -7 -9 -15 -16 -13 -11 -14 -10 -9
4 5 14 24 23 24 12z m-1059 -67 c44 -20 64 -39 40 -39 -13 0 -100 50 -107 61
-3 6 -2 18 2 27 6 15 8 14 11 -5 3 -15 20 -29 54 -44z m1669 12 c0 -11 3 -27
7 -37 4 -11 2 -15 -7 -12 -15 5 -24 68 -10 68 6 0 10 -9 10 -19z m194 10 c3
-5 15 -7 26 -4 12 3 20 0 20 -7 0 -7 -6 -10 -14 -7 -17 7 -27 -14 -19 -42 4
-16 1 -21 -15 -21 -25 0 -38 18 -23 33 7 7 7 14 0 23 -11 14 -4 34 11 34 5 0
11 -4 14 -9z m-2782 -28 c-2 -16 -10 -35 -17 -43 -6 -8 -24 -45 -39 -81 -15
-36 -39 -78 -52 -92 -13 -14 -24 -33 -24 -42 0 -8 -4 -15 -10 -15 -15 0 -12
13 15 61 13 24 36 67 50 94 31 62 76 145 80 145 1 0 0 -12 -3 -27z m124 -4
c10 -17 -13 -36 -27 -22 -12 12 -4 33 11 33 5 0 12 -5 16 -11z m100 0 c10 -17
-13 -36 -27 -22 -12 12 -4 33 11 33 5 0 12 -5 16 -11z m784 -3 c0 -8 -4 -17
-9 -21 -12 -7 -24 12 -16 25 9 15 25 12 25 -4z m830 0 c0 -13 -31 -75 -43 -84
-36 -30 -36 30 -1 63 24 22 44 32 44 21z m-1140 -22 c0 -17 -22 -14 -28 4 -2
7 3 12 12 12 9 0 16 -7 16 -16z m2777 -16 c-3 -8 -6 -5 -6 6 -1 11 2 17 5 13
3 -3 4 -12 1 -19z m-1182 -28 l0 -35 -85 -3 c-47 -2 -89 -7 -94 -12 -14 -14
-50 -12 -64 2 -16 16 -15 61 0 76 9 9 47 12 128 10 l115 -3 0 -35z m-436 8
c-7 -13 -51 -90 -98 -173 -83 -145 -86 -153 -91 -225 l-5 -75 -35 0 c-34 0
-37 3 -77 80 -23 44 -42 85 -43 92 0 7 20 13 52 15 l52 3 74 95 c40 52 93 121
117 153 45 57 77 78 54 35z m-2038 -4 c10 -13 10 -17 -2 -25 -22 -14 -46 -11
-53 7 -13 34 30 48 55 18z m2904 -13 c-3 -6 -11 -11 -17 -11 -6 0 -6 6 2 15
14 17 26 13 15 -4z m63 -14 c2 -10 -4 -20 -13 -23 -21 -8 -25 -3 -18 24 6 25
26 24 31 -1z m-308 -7 c0 -5 -2 -10 -4 -10 -3 0 -8 5 -11 10 -3 6 -1 10 4 10
6 0 11 -4 11 -10z m-1190 -10 c0 -5 -6 -10 -12 -11 -7 0 -1 -5 15 -11 l27 -10
-17 -29 c-16 -27 -22 -30 -53 -24 -19 4 -37 9 -39 11 -8 8 21 32 34 28 10 -4
12 1 8 16 -4 13 0 26 8 31 19 12 29 11 29 -1z m2040 -27 c-1 -24 -2 -26 -11
-10 -5 9 -7 22 -4 27 10 17 15 11 15 -17z m-2514 2 l36 -15 -23 -25 c-34 -35
-56 -32 -62 8 -8 51 -3 54 49 32z m1881 -11 c-3 -3 -12 -4 -19 -1 -8 3 -5 6 6
6 11 1 17 -2 13 -5z m596 -14 c6 -23 45 -28 65 -8 7 7 12 9 12 5 0 -5 -12 -19
-26 -32 -37 -35 -124 -34 -124 1 0 9 11 14 30 14 17 0 30 5 30 10 0 6 -5 10
-11 10 -5 0 -7 5 -4 10 10 16 22 12 28 -10z m-1576 -15 c0 -8 -8 -22 -17 -30
-15 -14 -17 -13 -17 2 0 14 18 37 33 43 0 0 1 -7 1 -15z m483 -14 c0 -12 -29
-23 -41 -15 -18 10 -9 24 16 24 14 0 25 -4 25 -9z m-2446 -17 c27 -10 7 -24
-34 -24 -60 0 -63 27 -3 29 12 1 28 -2 37 -5z m2729 -69 c0 -6 -7 -11 -16 -13
-12 -3 -15 1 -11 13 7 17 25 17 27 0z m1035 -13 c2 -7 -2 -10 -12 -6 -9 3 -16
11 -16 16 0 13 23 5 28 -10z m-1757 -15 c-10 -9 -11 -8 -5 6 3 10 9 15 12 12
3 -3 0 -11 -7 -18z m773 7 c5 -14 4 -15 -9 -4 -17 14 -19 20 -6 20 5 0 12 -7
15 -16z m-252 -47 c28 -44 26 -60 -7 -51 -20 5 -65 64 -65 84 0 5 10 10 23 10
15 0 30 -13 49 -43z m1238 12 c0 -6 -4 -7 -10 -4 -5 3 -10 11 -10 16 0 6 5 7
10 4 6 -3 10 -11 10 -16z m-633 -63 c-6 -17 -27 -18 -33 -2 -3 9 -3 24 1 34 6
16 7 16 21 -3 8 -10 13 -24 11 -29z m3925 2 c21 -25 22 -32 6 -59 -11 -17 -10
-22 6 -34 28 -21 39 -8 32 44 -3 32 -2 39 4 21 4 -14 8 -53 9 -87 1 -85 -21
-84 -71 3 -17 29 -57 40 -84 22 -6 -4 -11 -2 -12 5 -7 53 -6 62 6 60 7 -2 12
7 12 21 0 13 6 27 13 30 21 8 60 -4 79 -26z m-5096 -19 c-3 -17 -6 -38 -6 -46
0 -8 -4 -11 -10 -8 -11 7 -14 68 -3 78 16 16 25 5 19 -24z m1341 -35 c-3 -3
-12 -4 -19 -1 -8 3 -5 6 6 6 11 1 17 -2 13 -5z m-1727 -34 c0 -11 -7 -20 -15
-20 -18 0 -19 12 -3 28 16 16 18 15 18 -8z m720 -32 c0 -5 -4 -8 -10 -8 -5 0
-10 10 -10 23 0 18 2 19 10 7 5 -8 10 -18 10 -22z m176 -13 c-6 -24 -9 -25
-84 -25 -53 0 -72 3 -62 10 8 5 38 10 67 10 43 0 54 4 63 21 15 27 24 17 16
-16z m34 -44 l0 -49 -100 -1 c-67 -1 -100 2 -100 9 0 8 29 11 88 9 79 -2 87 0
88 17 1 23 14 64 20 64 2 0 4 -22 4 -49z m-2391 -17 c3 -3 -12 -20 -32 -39
-35 -32 -43 -35 -103 -35 -62 0 -83 11 -46 24 56 20 72 24 72 15 0 -5 9 -9 19
-9 20 0 36 26 21 35 -4 3 -10 -1 -13 -7 -2 -7 -8 -10 -12 -5 -15 14 29 37 59
32 16 -3 32 -8 35 -11z m4284 -5 c8 -28 -2 -49 -22 -49 -14 1 -14 2 2 14 12 9
14 16 8 21 -13 8 -15 35 -2 35 5 0 11 -9 14 -21z m1062 11 c3 -5 -1 -10 -9
-10 -8 0 -18 5 -21 10 -3 6 1 10 9 10 8 0 18 -4 21 -10z m-645 -4 c0 -3 -4 -8
-10 -11 -5 -3 -10 -1 -10 4 0 6 5 11 10 11 6 0 10 -2 10 -4z m1055 -6 c11 -17
-5 -32 -21 -19 -7 6 -11 15 -8 20 7 12 21 11 29 -1z m-5285 -39 c0 -27 -2 -28
-51 -30 -29 -1 -56 -4 -60 -7 -5 -3 -17 0 -26 5 -17 10 -17 10 0 11 9 0 26 6
37 12 16 10 24 10 41 -1 18 -11 23 -11 30 1 5 7 9 21 9 31 0 10 5 15 10 12 6
-3 10 -19 10 -34z m1570 -7 c0 -38 -3 -45 -16 -40 -9 3 -27 6 -41 6 -24 0 -29
24 -5 26 7 1 16 2 21 3 5 0 12 12 15 26 10 41 26 28 26 -21z m862 34 c37 -1
64 -4 60 -7 -5 -4 -12 -14 -15 -25 -7 -18 -8 -18 -27 -1 -18 16 -20 16 -35 1
-19 -19 -27 -20 -41 -6 -5 5 -26 7 -47 3 -21 -3 -35 -8 -33 -11 3 -2 -1 -11
-9 -19 -21 -20 -19 -30 9 -48 29 -19 216 -34 216 -17 0 6 10 12 23 14 31 4 35
43 5 59 -22 12 -22 12 -3 19 30 11 35 4 35 -51 0 -38 4 -49 16 -49 8 0 12 -4
9 -10 -3 -5 -78 -9 -180 -9 -199 -1 -195 -2 -195 85 0 66 15 80 87 77 32 -1
88 -3 125 -5z m3009 -5 c12 -14 12 -16 0 -8 -11 6 -13 2 -9 -19 6 -32 -7 -35
-17 -3 -6 19 -8 19 -12 5 -2 -10 -11 -18 -18 -18 -7 0 -16 -8 -18 -17 -3 -11
-5 -7 -6 10 0 15 4 27 9 27 6 0 10 6 10 14 0 9 7 12 20 9 11 -3 20 0 20 6 0
15 5 14 21 -6z m-9887 -81 c-1 -46 -5 -86 -8 -89 -4 -4 -13 3 -22 15 -8 12
-21 22 -29 22 -7 0 -15 12 -17 28 -2 16 -12 31 -25 37 -26 11 -30 25 -9 25 8
0 16 7 20 15 3 8 14 15 25 15 11 0 23 5 26 11 4 5 14 9 23 7 14 -3 17 -16 16
-86z m7026 76 c0 -8 -13 -13 -30 -13 -17 0 -30 5 -30 13 0 7 13 12 30 12 17 0
30 -5 30 -12z m1400 -28 c0 -38 -1 -39 -20 -28 -23 15 -27 33 -5 24 11 -4 15
1 15 19 0 14 2 25 5 25 3 0 5 -18 5 -40z m-951 -1 c-19 -12 -24 -2 -8 17 9 11
14 13 17 4 3 -7 -2 -16 -9 -21z m-2213 1 c8 0 14 -4 14 -10 0 -5 -9 -10 -19
-10 -23 0 -35 15 -25 32 6 9 9 9 12 0 2 -7 10 -12 18 -12z m1839 11 c3 -5 1
-12 -5 -16 -5 -3 -10 1 -10 9 0 18 6 21 15 7z m45 -1 c0 -5 -4 -10 -10 -10 -5
0 -10 5 -10 10 0 6 5 10 10 10 6 0 10 -4 10 -10z m40 -12 c0 -19 -2 -20 -10
-8 -13 19 -13 30 0 30 6 0 10 -10 10 -22z m43 -30 c-7 -78 -11 -82 -12 -10 -1
34 3 62 8 62 4 0 6 -24 4 -52z m47 43 c0 -6 -4 -13 -10 -16 -5 -3 -10 1 -10 9
0 9 5 16 10 16 6 0 10 -4 10 -9z m58 -48 c-2 -40 -7 -58 -18 -60 -9 -3 -11 -1
-4 4 12 9 6 93 -7 93 -5 0 -9 5 -9 10 0 6 9 10 20 10 19 0 21 -5 18 -57z
m1392 47 c0 -5 -4 -10 -10 -10 -5 0 -10 5 -10 10 0 6 5 10 10 10 6 0 10 -4 10
-10z m1984 -30 c7 -23 6 -24 -6 -5 -14 23 -21 52 -8 39 4 -5 11 -20 14 -34z
m-11719 6 c145 -1 170 -3 167 -16 -6 -26 -20 -34 -36 -21 -12 10 -19 8 -35 -8
-12 -12 -21 -25 -21 -31 0 -5 -5 -10 -11 -10 -6 0 -9 10 -7 23 2 12 9 21 15
20 6 -1 14 4 17 12 4 11 -3 15 -28 15 -29 0 -34 -4 -43 -32 -8 -27 -14 -33
-36 -31 -16 1 -26 -3 -24 -10 1 -7 -6 -11 -15 -9 -11 2 -18 -3 -18 -13 0 -11
-8 -16 -22 -15 -48 4 -99 0 -94 -8 2 -4 -9 -9 -26 -10 -17 -1 -38 -7 -48 -12
-20 -11 -50 -4 -50 12 0 5 -13 7 -29 3 -17 -4 -39 -1 -53 7 -12 7 -25 14 -27
15 -1 1 0 7 4 13 5 8 11 8 20 0 9 -7 16 -6 25 5 7 8 19 15 26 15 14 0 16 5 16
52 1 16 5 25 11 21 5 -3 15 1 21 9 16 22 36 26 86 15 25 -5 122 -10 215 -11z
m380 -20 c41 -44 75 -85 75 -91 0 -2 -13 1 -30 6 -16 6 -30 15 -30 20 0 5 -7
9 -15 9 -8 0 -21 14 -30 30 -15 29 -25 34 -52 31 -7 -1 -13 8 -13 19 0 19 4
21 33 15 17 -3 46 -21 62 -39z m4623 25 c-12 -20 -33 -18 -42 5 -4 10 3 14 24
14 27 0 29 -2 18 -19z m82 -2 c0 -5 -7 -9 -15 -9 -15 0 -20 12 -9 23 8 8 24
-1 24 -14z m1380 -5 c0 -8 -10 -14 -25 -14 -22 0 -24 2 -13 19 13 21 38 17 38
-5z m1987 4 c-3 -8 -6 -5 -6 6 -1 11 2 17 5 13 3 -3 4 -12 1 -19z m-7762 -9
c5 -5 -2 -9 -18 -9 -15 0 -27 -4 -27 -8 0 -5 -6 -16 -13 -26 -12 -16 -15 -15
-46 12 -19 16 -31 34 -27 40 7 12 115 5 131 -9z m165 0 c0 -5 -10 -10 -22 -10
-13 -1 -36 -3 -53 -5 -39 -5 -81 4 -69 16 19 18 144 17 144 -1z m5514 6 c4
-10 -1 -15 -15 -15 -11 0 -27 7 -35 15 -14 13 -12 15 14 15 17 0 32 -6 36 -15z
m-5824 -5 c0 -5 -7 -10 -15 -10 -8 0 -15 5 -15 10 0 6 7 10 15 10 8 0 15 -4
15 -10z m7990 -10 c7 -14 7 -20 0 -20 -5 0 -10 -5 -10 -11 0 -5 4 -8 9 -5 14
9 41 -4 41 -20 0 -8 5 -14 10 -14 6 0 10 -4 10 -10 0 -15 -30 -12 -36 4 -3 8
-13 12 -25 9 -20 -6 -59 21 -59 40 0 13 30 47 41 47 5 0 13 -9 19 -20z m1378
-5 c-2 -15 -6 -21 -11 -16 -6 6 -7 17 -4 25 9 24 17 19 15 -9z m-10642 -10
c14 -14 29 -25 34 -25 6 0 10 -4 10 -10 0 -5 -7 -10 -15 -10 -8 0 -15 -6 -15
-14 0 -8 -7 -17 -16 -20 -13 -5 -14 -9 -5 -20 13 -16 -4 -26 -43 -26 -30 0
-39 10 -24 27 7 9 8 17 2 21 -16 11 -15 52 2 45 9 -3 14 1 14 11 0 9 -7 19
-15 22 -26 10 -17 24 15 24 20 0 40 -9 56 -25z m7641 19 c-3 -3 -12 -4 -19 -1
-8 3 -5 6 6 6 11 1 17 -2 13 -5z m701 -113 c15 -15 15 -15 9 2 -4 11 -2 17 9
17 8 0 12 -5 9 -10 -3 -6 1 -13 9 -16 21 -8 20 -30 0 -38 -28 -11 -38 -6 -18
8 15 12 16 14 3 12 -10 -1 -24 -8 -33 -15 -14 -12 -16 -5 -14 75 1 63 3 73 5
35 3 -32 11 -60 21 -70z m2352 104 c-1 -4 9 -13 21 -19 13 -6 26 -22 30 -36 8
-28 12 -11 9 35 l-2 30 21 -22 c12 -12 21 -28 21 -36 0 -7 5 -18 10 -23 8 -8
6 -15 -5 -24 -12 -10 -15 -10 -15 0 0 7 -11 0 -24 -15 -14 -16 -24 -33 -23
-38 4 -21 -24 -17 -48 7 -21 21 -36 26 -78 27 -65 1 -162 15 -127 19 14 1 31
2 38 1 6 -1 12 3 12 10 0 7 13 10 38 6 22 -2 50 2 70 11 29 13 35 13 50 0 31
-27 40 -29 35 -9 -3 12 -17 23 -34 26 -24 6 -28 9 -18 21 9 11 9 14 -1 14 -10
0 -10 3 0 15 12 15 23 14 20 0z m-10540 -5 c0 -5 -2 -10 -4 -10 -3 0 -8 5 -11
10 -3 6 -1 10 4 10 6 0 11 -4 11 -10z m1755 -15 c25 -21 27 -27 15 -35 -9 -6
-18 -6 -24 0 -14 14 -26 12 -26 -3 0 -7 -7 -22 -15 -33 -15 -19 -15 -19 -35 5
-25 29 -25 42 0 69 27 28 48 27 85 -3z m8170 5 c0 -9 -11 -16 -27 -18 -23 -3
-28 1 -28 18 0 17 5 21 28 18 16 -2 27 -9 27 -18z m332 4 c3 -8 1 -20 -5 -26
-15 -15 -43 8 -35 28 7 19 32 18 40 -2z m-11002 -62 c-4 -4 -10 -1 -12 6 -8
22 -24 13 -18 -10 4 -15 -2 -32 -16 -49 -19 -24 -24 -26 -55 -16 -36 11 -45
31 -18 41 8 3 13 9 10 14 -8 13 6 26 54 48 l45 22 9 -25 c4 -13 5 -27 1 -31z
m791 22 c37 -18 43 -31 18 -41 -8 -3 -13 -12 -10 -19 6 -16 -27 -28 -68 -25
-36 2 -32 -2 -41 39 -6 31 -5 33 16 30 13 -2 29 -14 35 -27 l12 -23 7 22 c4
12 2 27 -4 33 -12 12 -15 27 -5 27 3 0 21 -7 40 -16z m762 -3 c-4 -21 -48 -28
-48 -8 0 9 -5 17 -11 19 -7 2 5 4 25 4 28 0 36 -4 34 -15z m-1178 -22 c9 -15
7 -19 -5 -19 -9 0 -14 4 -10 9 3 5 1 12 -5 16 -5 3 -10 11 -10 16 0 14 18 1
30 -22z m9230 21 c0 -5 -4 -10 -10 -10 -5 0 -10 5 -10 10 0 6 5 10 10 10 6 0
10 -4 10 -10z m3496 -41 c28 -56 27 -67 -5 -47 -27 17 -53 98 -31 98 5 0 21
-23 36 -51z m-13369 19 c-1 -15 4 -23 18 -26 11 -2 25 -11 31 -20 12 -17 34
-9 34 14 0 8 4 14 8 14 16 0 21 -13 12 -30 -10 -19 -67 -46 -77 -36 -3 3 1 6
11 6 9 0 15 4 12 9 -7 11 -46 3 -46 -9 0 -13 -59 13 -65 29 -3 8 -1 19 4 24 5
5 7 16 4 23 -3 8 -1 14 5 14 6 0 12 -6 15 -12 3 -9 7 -7 12 5 10 24 25 21 22
-5z m405 -2 c4 -6 8 -23 8 -37 0 -19 -6 -28 -22 -33 -30 -7 -42 7 -28 33 6 12
8 31 5 41 -5 16 -3 19 12 13 10 -4 21 -11 25 -17z m-1273 -47 c1 -70 -5 -85
-24 -69 -9 7 -12 24 -8 48 4 32 22 82 29 82 1 0 2 -28 3 -61z m1189 44 c-5
-25 -28 -28 -28 -4 0 12 6 21 16 21 9 0 14 -7 12 -17z m6019 -5 c-3 -8 -6 -5
-6 6 -1 11 2 17 5 13 3 -3 4 -12 1 -19z m2677 -5 c-9 -43 -26 -73 -42 -73 -7
0 -12 3 -10 8 2 4 13 26 24 49 22 48 37 57 28 16z m-8469 -3 c3 -5 -1 -10 -10
-10 -9 0 -13 5 -10 10 3 6 8 10 10 10 2 0 7 -4 10 -10z m5695 -15 c0 -14 -4
-25 -10 -25 -5 0 -10 11 -10 25 0 14 5 25 10 25 6 0 10 -11 10 -25z m5022 8
c-13 -3 -28 -15 -34 -28 -6 -14 -15 -22 -19 -19 -17 10 25 53 51 52 24 -1 24
-1 2 -5z m-1753 -19 c11 -10 -17 -22 -64 -28 -47 -5 -51 -4 -62 20 l-12 26 67
-7 c37 -4 69 -9 71 -11z m-9599 -29 c0 -8 -4 -15 -8 -15 -13 0 -32 23 -32 37
0 11 5 11 20 3 11 -6 20 -17 20 -25z m9670 25 c24 -8 24 -8 -7 -9 -17 -1 -35
4 -38 9 -7 11 9 11 45 0z m67 4 c-3 -3 -12 -4 -19 -1 -8 3 -5 6 6 6 11 1 17
-2 13 -5z m186 -1 c-7 -2 -19 -2 -25 0 -7 3 -2 5 12 5 14 0 19 -2 13 -5z
m1807 -13 c0 -11 -4 -20 -9 -20 -5 0 -7 9 -4 20 3 11 7 20 9 20 2 0 4 -9 4
-20z m-10520 0 c0 -5 -4 -10 -9 -10 -6 0 -13 5 -16 10 -3 6 1 10 9 10 9 0 16
-4 16 -10z m1369 -17 l27 -28 2 -292 c2 -201 0 -293 -7 -293 -6 0 -11 15 -12
33 -1 29 -2 30 -8 7 -5 -17 -14 -24 -31 -24 -24 0 -25 1 -25 79 l0 80 33 0 33
0 -1 182 c-1 139 -5 184 -15 193 -10 8 -15 7 -22 -4 -6 -10 -13 -12 -23 -6
-12 7 -12 12 -2 22 18 18 15 33 -4 17 -26 -22 -46 -20 -38 3 8 25 -10 38 -54
38 -20 0 -31 4 -27 10 3 6 38 10 76 10 64 0 73 -3 98 -27z m6216 6 c4 -11 4
-23 1 -27 -10 -9 -39 25 -32 37 11 17 24 13 31 -10z m2470 11 c3 -5 -1 -10
-10 -10 -9 0 -13 5 -10 10 3 6 8 10 10 10 2 0 7 -4 10 -10z m-4437 -16 c-9 -9
-22 -14 -30 -11 -8 3 -4 8 12 15 35 15 37 14 18 -4z m5157 6 c3 -5 1 -10 -4
-10 -6 0 -11 5 -11 10 0 6 2 10 4 10 3 0 8 -4 11 -10z m-9619 -15 c-8 -8 -18
-15 -22 -15 -3 0 -1 7 6 15 7 8 17 15 22 15 5 0 3 -7 -6 -15z m-2841 -23 c-3
-3 -11 0 -18 7 -9 10 -8 11 6 5 10 -3 15 -9 12 -12z m412 -8 c-7 -7 -37 7 -37
17 0 6 9 5 21 -1 11 -7 19 -14 16 -16z m2859 -13 c-12 -19 -24 -12 -19 10 4
13 9 17 15 11 6 -6 7 -15 4 -21z m983 -22 c-8 -5 11 -9 51 -12 36 -2 1 -4 -77
-5 -122 -2 -148 -5 -178 -22 -33 -18 -54 -20 -263 -19 -125 0 -245 4 -267 8
l-40 7 35 6 c19 4 126 6 238 7 216 0 257 4 266 27 4 11 23 14 78 12 l73 -2
-62 -3 c-98 -6 -74 -18 27 -15 52 2 88 7 85 13 -12 18 5 29 27 18 16 -9 18
-13 7 -20z m1531 -12 c9 -3 4 -6 -11 -6 -30 -1 -55 22 -43 40 5 9 12 7 23 -8
9 -11 23 -22 31 -26z m4330 22 c0 -12 5 -19 13 -16 6 2 11 10 10 16 -2 6 6 11
17 11 11 0 20 -5 20 -11 0 -20 -21 -50 -31 -43 -5 3 -15 1 -22 -5 -7 -5 -50
-11 -96 -12 -87 -2 -103 5 -94 42 3 10 0 19 -6 19 -6 0 -11 5 -11 10 0 6 40
10 100 10 95 0 100 -1 100 -21z m-10085 1 c8 -13 -5 -13 -25 0 -13 8 -13 10 2
10 9 0 20 -4 23 -10z m670 -8 c-3 -3 -11 0 -18 7 -9 10 -8 11 6 5 10 -3 15 -9
12 -12z m3727 -11 c13 -19 31 -20 279 -25 514 -10 570 -10 590 8 16 14 19 14
19 1 0 -17 17 -20 22 -4 2 6 11 10 21 8 13 -3 9 -9 -16 -24 -31 -19 -47 -20
-482 -17 l-450 3 -16 34 c-16 33 -15 35 2 35 10 0 24 -9 31 -19z m1297 -5 c29
-19 45 -22 81 -18 34 4 40 7 25 12 -18 7 -18 8 8 15 15 4 39 4 55 -1 l27 -8
-35 -6 c-49 -8 240 -20 497 -20 116 0 214 -4 217 -9 3 -5 -15 -11 -42 -14 -70
-7 -854 -1 -874 8 -24 10 -31 35 -11 42 15 6 14 7 -3 14 -19 7 -19 8 0 8 11 1
36 -10 55 -23z m4998 -16 c8 0 13 -6 11 -12 -5 -14 -88 -23 -125 -13 -13 3
-23 12 -23 20 0 18 34 37 54 29 9 -3 16 -1 16 6 0 6 11 3 26 -9 15 -12 33 -21
41 -21z m-5219 3 c-10 -2 -28 -2 -40 0 -13 2 -5 4 17 4 22 1 32 -1 23 -4z
m4392 -8 c0 -8 -4 -15 -9 -15 -5 0 -11 7 -15 15 -3 9 0 15 9 15 8 0 15 -7 15
-15z m-9240 -52 c0 -3 -12 -21 -26 -40 -23 -30 -25 -41 -24 -126 2 -147 1
-177 -9 -177 -5 0 -9 55 -9 123 -1 110 2 127 24 175 22 44 44 68 44 45z m1547
-28 c9 -25 -4 -29 -17 -6 -7 15 -7 21 0 21 6 0 13 -7 17 -15z m3735 -15 c3 10
9 10 23 3 12 -7 28 -8 42 -2 18 7 23 5 23 -9 0 -15 2 -15 10 -2 5 8 10 11 10
5 0 -5 11 -11 25 -11 14 -1 25 2 25 7 0 5 4 9 9 9 5 0 7 -8 5 -18 -4 -14 -16
-17 -68 -16 -34 0 -68 4 -76 9 -8 5 -11 4 -7 -2 4 -7 -8 -11 -33 -11 -22 0
-40 3 -40 9 0 18 5 24 17 21 7 -2 13 3 13 10 0 10 2 10 9 -1 7 -10 9 -11 13
-1z m336 -25 c-1 -1 -31 -6 -66 -10 -62 -7 -63 -7 -51 14 10 14 15 17 21 8 6
-9 8 -9 8 1 0 7 13 12 29 12 16 0 31 -6 34 -12 3 -9 8 -6 13 7 8 19 9 19 12 2
2 -10 2 -20 0 -22z m-4881 10 c8 -9 15 -32 16 -51 1 -32 2 -34 14 -18 7 10 13
22 13 27 0 4 9 5 20 2 16 -5 20 -2 20 14 0 12 7 21 15 21 8 0 15 5 15 10 0 6
5 10 11 10 7 0 9 -10 5 -26 -4 -15 -8 -74 -9 -132 l-2 -106 -63 1 c-35 1 -66
4 -69 7 -5 5 -10 256 -5 256 2 0 10 -7 19 -15z m4900 -7 c-3 -8 -6 -5 -6 6 -1
11 2 17 5 13 3 -3 4 -12 1 -19z m41 5 c-2 -9 -10 -19 -18 -21 -12 -4 -13 -3
-3 10 7 8 10 18 6 21 -3 4 -1 7 6 7 7 0 11 -8 9 -17z m68 -9 c-4 -9 -9 -15
-11 -12 -3 3 -3 13 1 22 4 9 9 15 11 12 3 -3 3 -13 -1 -22z m186 -1 c6 -22 -1
-43 -13 -43 -5 0 -9 14 -9 30 0 33 15 41 22 13z m7658 -3 l65 -7 -71 -2 c-57
-1 -73 2 -78 15 -4 10 -2 13 6 8 7 -4 42 -11 78 -14z m-13517 -38 c-6 -10 -9
-30 -6 -45 3 -16 1 -27 -6 -27 -12 0 -14 16 -11 65 3 39 10 49 23 36 9 -9 9
-16 0 -29z m4405 -53 c-3 -35 -10 -65 -19 -72 -11 -10 -75 -11 -279 -7 l-265
6 266 2 267 2 6 31 c3 17 6 55 6 83 1 41 3 48 11 32 6 -10 9 -45 7 -77z
m-4328 71 c0 -5 -4 -10 -9 -10 -6 0 -13 5 -16 10 -3 6 1 10 9 10 9 0 16 -4 16
-10z m5134 -31 c6 -5 -4 -8 -22 -6 -19 1 -32 8 -32 15 0 14 36 8 54 -9z m29 1
c-5 -17 1 -19 63 -22 66 -3 69 -4 69 -28 0 -24 -3 -25 -62 -28 -66 -3 -75 2
-45 24 16 12 16 13 0 14 -9 0 -21 -8 -27 -17 -5 -10 -13 -15 -16 -11 -9 9 4
88 15 88 4 0 6 -9 3 -20z m-4981 -2 c-9 -9 -15 -9 -24 0 -9 9 -7 12 12 12 19
0 21 -3 12 -12z m688 -10 c0 -13 -23 -5 -28 10 -2 7 2 10 12 6 9 -3 16 -11 16
-16z m12550 1 c0 -20 15 -33 55 -47 27 -9 23 -11 -37 -11 -72 -1 -72 -1 -82
46 -7 30 -6 31 28 30 27 -1 36 -5 36 -18z m-6225 1 c3 -5 -1 -10 -10 -10 -9 0
-13 5 -10 10 3 6 8 10 10 10 2 0 7 -4 10 -10z m7137 -77 c5 -7 7 -16 4 -21 -3
-6 -7 -70 -10 -143 -2 -74 -9 -145 -15 -159 -10 -21 -10 -18 -5 24 10 86 12
150 4 196 -4 25 -8 37 -9 27 -3 -42 -18 -3 -19 50 -2 42 0 54 8 43 7 -11 10
-5 11 25 l1 40 10 -35 c5 -19 14 -40 20 -47z m1373 -5 c14 -135 2 -373 -21
-410 -12 -19 -23 -6 -26 30 -3 36 -4 37 -40 35 -33 -2 -37 0 -35 18 1 13 -9
29 -25 42 -29 22 -49 17 -29 -7 11 -13 4 -14 -46 -9 -68 7 -71 8 -56 32 14 23
8 31 -24 31 -27 0 -29 8 -6 25 16 12 15 13 -7 13 -14 0 -45 4 -70 8 -44 9 -45
10 -39 39 5 22 7 24 8 8 1 -30 14 -35 48 -21 15 7 55 12 88 13 47 0 60 3 63
16 3 16 -31 34 -53 29 -5 -1 -17 -3 -25 -3 -8 0 -21 -7 -27 -16 -11 -14 -14
-14 -22 -1 -6 8 -38 19 -72 25 -61 10 -95 35 -47 35 13 0 28 8 35 19 9 15 27
19 90 23 91 5 115 14 89 34 -15 11 -10 13 40 20 40 5 59 3 62 -5 5 -14 23 -14
20 0 -2 7 12 16 30 21 17 5 32 13 32 18 0 9 39 19 51 13 4 -2 10 -36 14 -75z
m-11235 64 c0 -16 -39 -44 -51 -37 -8 6 -5 13 12 26 26 20 39 24 39 11z m4527
2 c-3 -3 -12 -4 -19 -1 -8 3 -5 6 6 6 11 1 17 -2 13 -5z m220 0 c-3 -3 -12 -4
-19 -1 -8 3 -5 6 6 6 11 1 17 -2 13 -5z m66 -1 c-7 -2 -21 -2 -30 0 -10 3 -4
5 12 5 17 0 24 -2 18 -5z m94 1 c-3 -3 -12 -4 -19 -1 -8 3 -5 6 6 6 11 1 17
-2 13 -5z m150 0 c-3 -3 -12 -4 -19 -1 -8 3 -5 6 6 6 11 1 17 -2 13 -5z m281
1 c-9 -9 -179 -12 -184 -3 -3 4 39 8 92 8 54 0 95 -2 92 -5z m437 -5 c-7 -11
-193 -12 -330 -1 -74 6 -51 8 123 9 140 1 211 -1 207 -8z m75 0 c0 -5 -9 -10
-20 -10 -11 0 -20 5 -20 10 0 6 9 10 20 10 11 0 20 -4 20 -10z m120 0 c0 -5
-11 -10 -25 -10 -14 0 -25 5 -25 10 0 6 11 10 25 10 14 0 25 -4 25 -10z m125
0 c4 -6 -14 -10 -45 -10 -28 0 -49 4 -46 8 7 12 84 14 91 2z m123 -4 c3 -3
-20 -6 -52 -6 -36 0 -55 4 -51 10 6 10 92 6 103 -4z m97 4 c4 -6 -8 -10 -29
-10 -20 0 -36 5 -36 10 0 6 13 10 29 10 17 0 33 -4 36 -10z m325 -4 c8 -2 -25
-4 -73 -5 -49 0 -86 3 -83 7 4 7 120 6 156 -2z m3473 -65 c6 -53 5 -76 -4 -81
-8 -6 -8 -9 0 -14 17 -11 14 -76 -4 -76 -11 0 -15 -12 -15 -45 0 -25 -3 -45
-7 -45 -5 0 -9 77 -11 171 -3 160 -2 170 15 167 14 -3 20 -18 26 -77z m-13703
44 c-12 -15 -30 -12 -30 5 0 8 31 19 39 13 2 -1 -2 -9 -9 -18z m4095 15 c-3
-5 -12 -10 -18 -10 -7 0 -6 4 3 10 19 12 23 12 15 0z m5953 3 c-10 -2 -26 -2
-35 0 -10 3 -2 5 17 5 19 0 27 -2 18 -5z m1018 -14 c3 -6 19 -9 35 -7 24 4 27
2 18 -14 -13 -24 -51 -23 -73 1 -10 11 -30 22 -45 24 -17 3 -12 5 16 6 23 0
45 -4 49 -10z m-12089 -51 c-2 -13 -4 -5 -4 17 -1 22 1 32 4 23 2 -10 2 -28 0
-40z m2889 21 c19 -22 19 -22 -3 -10 -13 6 -23 16 -23 21 0 15 5 12 26 -11z
m11508 -74 c4 -62 3 -85 -4 -75 -9 13 -15 179 -6 169 2 -2 6 -44 10 -94z m135
-57 c0 -54 -3 -98 -7 -98 -5 0 -9 57 -9 128 0 76 2 115 7 97 4 -16 8 -74 9
-127z m69 -23 c0 -71 -3 -141 -7 -154 -3 -14 -6 55 -6 153 0 97 3 167 7 154 3
-13 6 -81 6 -153z m-365 134 c26 3 29 0 17 -14 -7 -8 -9 -15 -5 -15 4 0 1 -7
-6 -16 -11 -14 -11 -18 4 -29 21 -15 22 -26 2 -19 -13 5 -15 -8 -16 -77 -1
-46 -5 -95 -9 -109 -5 -15 -8 45 -8 145 0 94 3 162 7 152 4 -10 10 -18 14 -18z
m1270 19 c-15 -7 -30 -7 -50 0 -26 10 -24 10 22 11 42 0 46 -2 28 -11z
m-15177 -13 c18 -12 24 -23 21 -43 -3 -23 -9 -27 -40 -30 -39 -3 -52 14 -15
20 12 2 23 9 26 16 3 9 -12 12 -55 11 -32 -1 -46 -4 -30 -6 15 -2 27 -7 27 -9
0 -20 -35 -30 -105 -32 -44 -1 -88 -5 -97 -8 -15 -4 -18 1 -18 36 0 25 -4 39
-10 35 -10 -6 -14 7 -5 17 3 3 66 6 141 7 110 2 140 -1 160 -14z m1161 -7 c-3
-8 -6 -5 -6 6 -1 11 2 17 5 13 3 -3 4 -12 1 -19z m4169 -13 c10 -15 14 -34 10
-49 -7 -27 19 -40 48 -24 22 12 20 -4 -3 -24 -17 -14 -21 -15 -32 -2 -6 8 -22
14 -34 14 -28 0 -35 16 -28 69 6 47 16 51 39 16z m346 3 c-7 -7 -12 -8 -12 -2
0 14 12 26 19 19 2 -3 -1 -11 -7 -17z m5973 12 c3 -5 -3 -10 -14 -10 -12 0
-21 -4 -21 -10 0 -5 -5 -10 -11 -10 -5 0 -7 5 -4 10 16 26 -27 6 -49 -22 -14
-18 -26 -27 -26 -19 0 25 58 71 89 71 17 0 33 -4 36 -10z m-6215 -16 c0 -8 -5
-12 -10 -9 -6 3 -13 -1 -16 -9 -3 -9 -10 -13 -16 -10 -5 3 -2 14 8 25 21 23
34 24 34 3z m7858 7 c1 0 -4 -14 -12 -30 -9 -16 -12 -31 -9 -35 11 -11 79 -6
91 6 9 9 12 8 12 -8 0 -18 -7 -19 -97 -19 l-98 0 -3 46 -3 45 58 -1 c32 -1 59
-3 61 -4z m1238 -32 c9 -10 25 -19 36 -19 10 0 18 -7 18 -15 0 -8 -7 -15 -15
-15 -8 0 -15 4 -15 10 0 17 -25 0 -36 -25 -11 -22 -9 -24 14 -27 22 -2 27 -9
29 -35 4 -43 -13 -50 -32 -13 -8 16 -23 30 -31 30 -12 0 -14 -4 -7 -12 5 -7 7
-24 3 -38 -3 -14 0 -36 6 -49 15 -28 10 -41 -13 -41 -10 0 -14 6 -10 20 3 11
2 20 -2 20 -5 0 -7 161 -2 222 1 21 33 14 57 -13z m244 16 c10 -12 8 -16 -15
-25 -32 -12 -30 -13 -39 18 -6 19 -4 22 17 22 14 0 30 -7 37 -15z m-3875 -4
c3 -5 1 -12 -5 -16 -5 -3 -10 1 -10 9 0 18 6 21 15 7z m3777 -16 c9 4 19 2 22
-3 6 -11 -51 -25 -66 -16 -5 3 -4 12 3 20 8 10 14 11 19 4 4 -6 14 -8 22 -5z
m-12689 -14 c4 0 7 -34 7 -75 0 -66 -2 -75 -20 -81 -27 -9 -40 1 -41 33 -1 27
-1 27 -8 -3 -5 -23 -12 -31 -34 -33 -17 -2 -27 2 -28 10 -2 34 3 143 7 149 3
6 80 6 117 0z m11674 -98 c-2 -21 -4 -4 -4 37 0 41 2 58 4 38 2 -21 2 -55 0
-75z m-852 50 c-6 -24 -8 -26 -16 -10 -6 10 -7 27 -4 38 10 32 29 6 20 -28z
m-9420 7 c-6 -9 -9 -9 -16 1 -10 17 0 34 13 21 6 -6 7 -16 3 -22z m11452 24
c-3 -3 -12 -4 -19 -1 -8 3 -5 6 6 6 11 1 17 -2 13 -5z m-3637 -28 c0 -7 -13
-30 -30 -51 -16 -21 -30 -42 -30 -46 0 -12 -50 -43 -57 -35 -4 3 12 25 36 47
23 22 44 54 48 70 5 29 33 42 33 15z m2907 -18 c-3 -7 -5 -2 -5 12 0 14 2 19
5 13 2 -7 2 -19 0 -25z m-2462 12 c3 -5 -1 -10 -10 -10 -9 0 -13 5 -10 10 3 6
8 10 10 10 2 0 7 -4 10 -10z m-2375 -26 c0 -8 -4 -12 -10 -9 -5 3 -10 13 -10
21 0 8 5 12 10 9 6 -3 10 -13 10 -21z m2320 -3 c0 -24 -3 -28 -20 -24 -30 8
-35 22 -14 38 28 21 34 18 34 -14z m197 14 c9 -24 -1 -27 -15 -5 -8 13 -8 20
-2 20 6 0 13 -7 17 -15z m73 -64 c0 -6 -4 -11 -9 -11 -11 0 -51 66 -44 74 7 6
53 -48 53 -63z m18 41 c13 -19 13 -22 0 -22 -8 0 -20 12 -27 26 -14 32 5 29
27 -4z m1349 -12 c0 -16 2 -32 4 -35 6 -6 46 -13 77 -14 13 -1 20 -5 17 -11
-3 -5 -39 -10 -79 -10 l-73 0 1 50 c1 47 3 50 27 50 22 0 26 -4 26 -30z m138
20 c4 -7 -2 -9 -18 -4 -33 8 -67 -3 -67 -22 0 -8 -6 -14 -14 -14 -17 0 -28 37
-12 44 22 9 105 6 111 -4z m-7655 -36 c0 -17 -12 -18 -27 -3 -17 17 -5 43 13
28 8 -6 14 -18 14 -25z m-5970 22 c0 -3 -4 -8 -10 -11 -5 -3 -10 -1 -10 4 0 6
5 11 10 11 6 0 10 -2 10 -4z m624 -5 c3 -5 -4 -11 -16 -14 -26 -7 -78 2 -78
14 0 12 87 12 94 0z m1109 -36 c5 -35 4 -38 -7 -22 -7 9 -11 28 -8 42 6 32 8
30 15 -20z m3832 24 c4 -11 4 -23 0 -27 -7 -7 -25 17 -25 36 0 20 18 14 25 -9z
m8275 -9 c0 -10 -4 -22 -10 -25 -6 -4 -10 7 -10 25 0 18 4 29 10 25 6 -3 10
-15 10 -25z m526 -68 c-13 -12 -16 7 -9 54 l8 49 3 -49 c2 -26 1 -51 -2 -54z
m-13243 81 c-7 -2 -19 -2 -25 0 -7 3 -2 5 12 5 14 0 19 -2 13 -5z m13198 -54
l-9 -54 -1 51 c0 28 2 54 6 57 12 13 13 0 4 -54z m1004 51 c4 -6 -8 -10 -29
-10 -20 0 -36 5 -36 10 0 6 13 10 29 10 17 0 33 -4 36 -10z m-9150 -50 c61 -9
50 -10 -85 -11 -124 0 -138 1 -85 11 54 10 110 10 170 0z m1255 -1 c25 -1 25
-1 -3 -9 -27 -8 -1165 -11 -1180 -3 -4 2 -5 7 -3 11 3 6 1079 7 1186 1z m7880
1 c0 -5 -6 -10 -14 -10 -8 0 -18 5 -21 10 -3 6 3 10 14 10 12 0 21 -4 21 -10z
m-13860 -34 c0 -19 -4 -38 -10 -41 -6 -4 -10 10 -10 34 0 23 5 41 10 41 6 0
10 -15 10 -34z m6100 24 c0 -11 -21 -11 -65 0 -27 7 -25 8 18 9 26 0 47 -3 47
-9z m110 0 c0 -5 -20 -10 -45 -10 -25 0 -45 5 -45 10 0 6 20 10 45 10 25 0 45
-4 45 -10z m410 0 c0 -5 -14 -10 -31 -10 -17 0 -28 4 -24 10 3 6 17 10 31 10
13 0 24 -4 24 -10z m95 0 c3 -5 -1 -10 -9 -10 -9 0 -16 5 -16 10 0 6 4 10 9
10 6 0 13 -4 16 -10z m220 0 c-3 -5 -23 -10 -43 -10 -28 0 -33 3 -22 10 20 13
73 13 65 0z m152 -4 c4 -3 -12 -6 -35 -6 -24 0 -42 5 -42 11 0 11 66 7 77 -5z
m83 4 c0 -5 -10 -10 -22 -10 -19 0 -20 2 -8 10 19 13 30 13 30 0z m230 0 c0
-6 -37 -10 -90 -10 -49 0 -90 4 -90 9 0 4 41 9 90 10 54 0 90 -3 90 -9z m227
-25 c1 -42 -3 -43 -29 -10 -10 14 -29 24 -41 24 -12 -1 -46 0 -74 1 -89 4 -48
20 51 20 l92 0 1 -35z m83 25 c0 -5 -9 -10 -21 -10 -11 0 -17 5 -14 10 3 6 13
10 21 10 8 0 14 -4 14 -10z m740 1 c37 -9 33 -10 -345 -15 -188 -3 -386 4
-381 13 6 10 687 11 726 2z m140 -8 c-52 -7 -90 -8 -90 -2 0 9 80 17 95 9 6
-2 3 -6 -5 -7z m4411 -28 c-9 -30 -9 -30 -10 10 -1 25 2 36 9 29 6 -6 6 -21 1
-39z m-3903 28 c-86 -2 -230 -2 -320 0 -90 1 -19 3 157 3 176 0 249 -2 163 -3z
m425 0 c-46 -2 -120 -2 -165 0 -46 1 -9 3 82 3 91 0 128 -2 83 -3z m170 0 c-7
-2 -21 -2 -30 0 -10 3 -4 5 12 5 17 0 24 -2 18 -5z m4293 -5 c4 -6 2 -14 -4
-16 -7 -2 -12 -11 -13 -20 0 -14 -2 -13 -9 3 -5 11 -9 26 -9 33 -1 15 25 16
35 0z m-14776 -8 c0 -5 -4 -10 -10 -10 -5 0 -10 5 -10 10 0 6 5 10 10 10 6 0
10 -4 10 -10z m-740 -3 c0 -1 -5 -40 -10 -85 -8 -59 -8 -88 0 -103 14 -24 4
-40 -11 -19 -6 9 -8 49 -5 95 3 44 6 88 6 98 0 9 5 17 10 17 6 0 10 -1 10 -3z
m12488 -9 c16 -16 15 -28 -2 -28 -7 0 -16 9 -19 20 -6 23 3 26 21 8z m1187 -8
c19 -8 19 -9 -2 -9 -13 -1 -23 -6 -23 -12 0 -6 -11 -8 -29 -4 -34 7 -51 -18
-23 -34 24 -13 8 -25 -23 -17 -23 6 -25 9 -13 23 11 15 11 16 -7 9 -36 -13
-40 -11 -43 22 l-3 32 73 -1 c40 0 82 -4 93 -9z m-12891 -45 c-4 -17 -10 -23
-16 -17 -6 6 -6 18 2 32 15 28 23 20 14 -15z m9761 25 c3 -5 1 -10 -4 -10 -6
0 -11 5 -11 10 0 6 2 10 4 10 3 0 8 -4 11 -10z m3805 -20 c0 -5 -8 -10 -17
-10 -15 0 -16 2 -3 10 19 12 20 12 20 0z m-13608 -87 c13 -26 6 -38 -17 -30
-16 7 -21 61 -7 94 6 14 8 12 10 -12 1 -16 8 -40 14 -52z m768 -47 c-6 -18
-21 -43 -34 -55 -20 -19 -24 -20 -36 -6 -10 12 -9 16 4 21 9 3 16 12 16 20 0
8 6 14 14 14 8 0 17 14 21 33 4 17 10 37 14 42 11 18 13 -35 1 -69z m12113 57
c-13 -2 -33 -2 -45 0 -13 2 -3 4 22 4 25 0 35 -2 23 -4z m-13023 -43 c0 -5 -7
-10 -15 -10 -8 0 -15 5 -15 10 0 6 7 10 15 10 8 0 15 -4 15 -10z m375 -10 c3
-5 -3 -10 -15 -10 -12 0 -18 5 -15 10 3 6 10 10 15 10 5 0 12 -4 15 -10z
m4448 -15 c-4 -15 -36 -12 -41 3 -3 9 3 13 19 10 13 -1 23 -7 22 -13z m2707
-1 c316 -3 582 -9 590 -12 27 -12 -188 -17 -688 -17 l-492 0 0 -22 c0 -30 -14
-29 -34 2 l-17 25 -936 0 c-873 -1 -1000 3 -942 25 14 5 1888 13 1924 8 11 -2
279 -6 595 -9z m-7390 -16 c0 -16 -3 -19 -11 -11 -6 6 -8 16 -5 22 11 17 16
13 16 -11z m8778 10 c999 6 1498 -1 1486 -19 -2 -4 -205 -8 -451 -7 -426 0
-447 -1 -454 -18 -7 -18 -8 -18 -8 1 -1 21 -6 21 -483 23 -266 1 -489 2 -496
2 -7 0 -10 4 -7 10 4 6 64 10 147 9 77 0 143 2 146 5 2 3 9 3 14 0 5 -4 53 -6
106 -6z m-663 -6 l40 -7 -50 -5 c-57 -6 -87 -2 -79 11 6 11 35 11 89 1z m230
-2 c3 -4 -1 -10 -8 -13 -19 -7 -167 5 -162 14 7 10 163 10 170 -1z m2253 -11
c2 -12 -8 -14 -65 -12 -110 6 -129 17 -43 24 97 7 104 7 108 -12z m186 14 c4
-4 23 -6 43 -4 23 2 33 -1 29 -8 -4 -6 -29 -11 -56 -11 -40 0 -51 -4 -61 -21
-9 -17 -13 -19 -20 -8 -5 8 -9 24 -9 37 0 18 5 22 33 22 19 0 37 -3 41 -7z
m-11489 -13 c3 -5 1 -10 -4 -10 -6 0 -11 5 -11 10 0 6 2 10 4 10 3 0 8 -4 11
-10z m11110 0 c-8 -13 -75 -13 -95 0 -11 7 2 10 43 10 36 0 56 -4 52 -10z
m2045 0 c0 -5 -7 -10 -15 -10 -8 0 -15 5 -15 10 0 6 7 10 15 10 8 0 15 -4 15
-10z m-11965 -19 c-6 -5 -35 -10 -65 -11 -71 -3 -80 -2 -80 10 0 6 32 10 77
10 47 0 73 -4 68 -9z m10191 -33 c4 -13 12 -26 18 -30 6 -4 7 -10 3 -14 -10
-10 -37 16 -37 36 0 10 -6 21 -12 23 -8 3 -7 6 4 6 9 1 20 -9 24 -21z m-5951
-38 c-3 -5 -10 -10 -16 -10 -5 0 -9 5 -9 10 0 6 7 10 16 10 8 0 12 -4 9 -10z
m95 0 c0 -5 -4 -10 -10 -10 -5 0 -10 5 -10 10 0 6 5 10 10 10 6 0 10 -4 10
-10z m480 0 c0 -6 -64 -10 -172 -10 -116 0 -168 4 -158 10 20 13 330 13 330 0z
m85 0 c4 -6 -8 -10 -29 -10 -20 0 -36 5 -36 10 0 6 13 10 29 10 17 0 33 -4 36
-10z m130 0 c14 -6 -1 -9 -48 -9 -43 -1 -66 3 -62 9 7 12 82 12 110 0z m528
-2 c6 -4 -105 -7 -248 -6 -161 1 -228 4 -175 8 124 8 408 7 423 -2z m445 -3
c3 -3 -91 -4 -209 -4 -118 1 -198 4 -179 8 40 7 381 4 388 -4z m60 -2 c-10 -2
-26 -2 -35 0 -10 3 -2 5 17 5 19 0 27 -2 18 -5z m119 0 c-20 -2 -52 -2 -70 0
-17 2 0 4 38 4 39 0 53 -2 32 -4z m96 0 c-7 -2 -21 -2 -30 0 -10 3 -4 5 12 5
17 0 24 -2 18 -5z m170 0 c-18 -2 -48 -2 -65 0 -18 2 -4 4 32 4 36 0 50 -2 33
-4z m125 0 c-10 -2 -26 -2 -35 0 -10 3 -2 5 17 5 19 0 27 -2 18 -5z m240 0
c-38 -2 -98 -2 -135 0 -38 2 -7 3 67 3 74 0 105 -1 68 -3z m99 1 c-3 -3 -12
-4 -19 -1 -8 3 -5 6 6 6 11 1 17 -2 13 -5z m76 -1 c-7 -2 -19 -2 -25 0 -7 3
-2 5 12 5 14 0 19 -2 13 -5z m2512 -3 c8 -13 -2244 -13 -2265 0 -10 6 395 10
1122 10 742 0 1139 -4 1143 -10z m-6405 -25 c0 -8 -16 -14 -40 -17 -34 -3 -40
-1 -40 15 0 13 5 17 15 13 8 -3 15 -2 15 3 0 4 11 6 25 3 14 -2 25 -10 25 -17z
m6507 19 c-3 -3 -12 -4 -19 -1 -8 3 -5 6 6 6 11 1 17 -2 13 -5z m-6635 -11
c-9 -4 -10 -9 -2 -18 8 -9 2 -12 -27 -10 -21 1 -54 3 -74 4 -20 0 -39 7 -42
14 -4 10 14 13 77 14 44 0 75 -2 68 -4z m178 -8 c0 -8 -7 -15 -15 -15 -16 0
-20 12 -8 23 11 12 23 8 23 -8z m-260 -48 c0 -5 7 -4 15 3 19 16 40 3 24 -16
-13 -16 -55 -19 -64 -4 -3 5 -12 7 -20 3 -9 -3 -15 1 -15 9 0 10 11 15 30 15
17 0 30 -5 30 -10z m232 -2 c5 -6 8 -5 8 3 0 7 12 12 28 12 34 0 43 -7 35 -26
-6 -16 -33 -19 -33 -3 0 5 -5 7 -11 4 -31 -20 -99 -13 -99 10 0 16 61 16 72 0z
m248 -6 c0 -14 -12 -17 -80 -16 -66 1 -80 4 -80 16 0 13 14 16 80 16 67 0 80
-3 80 -16z m141 8 c34 -1 63 1 66 6 8 13 22 -3 16 -19 -4 -11 -18 -15 -52 -13
-26 2 -51 0 -57 -3 -12 -8 -64 2 -64 12 0 5 -9 6 -20 3 -11 -3 -20 -1 -20 4 0
18 14 24 42 17 16 -3 56 -7 89 -7z m149 3 c0 -4 6 -8 13 -7 28 1 47 -3 47 -11
0 -4 -25 -8 -55 -9 -46 0 -55 2 -55 17 0 12 8 18 25 18 14 0 25 -4 25 -8z
m-625 -10 c4 -6 -8 -10 -29 -10 -20 0 -39 0 -43 -1 -4 0 -9 4 -11 10 -5 14 75
15 83 1z m6063 -98 c-2 -45 -7 -83 -13 -85 -13 -3 -18 64 -10 132 10 81 26 48
23 -47z m1319 -39 c-2 -27 -3 -5 -3 47 0 52 1 74 3 48 2 -27 2 -69 0 -95z
m-1367 -27 c-17 -17 -20 1 -13 75 l7 74 8 -70 c4 -40 3 -74 -2 -79z m-5980
114 c0 -19 -5 -21 -65 -18 -81 4 -91 23 -12 24 31 0 60 4 64 7 10 11 13 8 13
-13z m440 2 c0 -13 -9 -19 -35 -20 -24 -2 -35 2 -35 11 0 19 4 22 39 24 24 2
31 -2 31 -15z m5797 -89 c-2 -21 -4 -4 -4 37 0 41 2 58 4 38 2 -21 2 -55 0
-75z m-6419 85 c-6 -18 -58 -22 -58 -3 0 10 10 15 31 15 19 0 29 -4 27 -12z
m29 -10 c-3 -8 -6 -5 -6 6 -1 11 2 17 5 13 3 -3 4 -12 1 -19z m260 5 c2 -6 -4
-11 -14 -11 -10 0 -30 -3 -45 -7 -23 -6 -28 -4 -28 11 0 16 8 19 42 19 23 0
43 -5 45 -12z m243 0 c0 -10 -21 -13 -84 -12 -47 0 -89 -2 -95 -5 -13 -9 -41
4 -41 18 0 9 30 13 110 12 84 0 110 -3 110 -13z m5845 7 c3 -5 1 -10 -4 -10
-6 0 -11 5 -11 10 0 6 2 10 4 10 3 0 8 -4 11 -10z m-7295 -10 c0 -5 -5 -10
-11 -10 -5 0 -7 5 -4 10 3 6 8 10 11 10 2 0 4 -4 4 -10z m110 -25 c0 -13 -5
-27 -12 -31 -7 -4 -8 -3 -4 4 4 7 1 12 -9 12 -9 0 -13 5 -10 10 4 6 11 7 17 4
7 -5 9 0 6 14 -4 12 -2 20 3 16 5 -3 9 -16 9 -29z m7150 -24 c0 -4 -3 -11 -7
-14 -9 -9 -33 12 -33 30 0 11 4 11 20 3 11 -6 20 -14 20 -19z m1080 9 c0 -5
-5 -10 -11 -10 -5 0 -7 5 -4 10 3 6 8 10 11 10 2 0 4 -4 4 -10z m-8358 -8 c14
-6 15 -10 3 -26 -16 -21 -35 -13 -35 15 0 20 5 22 32 11z m7188 -2 c0 -5 -4
-10 -10 -10 -5 0 -10 5 -10 10 0 6 5 10 10 10 6 0 10 -4 10 -10z m-10299 -6
l66 -6 -14 -29 c-8 -16 -12 -37 -9 -46 3 -10 1 -25 -4 -33 -9 -13 -12 -13 -21
3 -7 12 -15 15 -22 9 -17 -12 -55 -13 -63 -1 -4 6 -11 6 -20 -2 -8 -6 -17 -9
-20 -7 -3 3 -24 0 -47 -7 l-42 -13 0 39 c0 32 3 39 25 44 23 6 23 7 6 17 -10
6 -46 11 -79 12 -33 1 -62 7 -64 13 -5 13 202 17 308 7z m4539 -4 c0 -5 -5
-10 -11 -10 -5 0 -7 5 -4 10 3 6 8 10 11 10 2 0 4 -4 4 -10z m5977 -37 c-3
-10 -5 -2 -5 17 0 19 2 27 5 18 2 -10 2 -26 0 -35z m173 43 c0 -2 -7 -9 -15
-16 -12 -10 -15 -10 -15 4 0 9 7 16 15 16 8 0 15 -2 15 -4z m-7522 -88 c-2
-17 -9 -33 -15 -36 -10 -3 -13 13 -13 60 1 62 1 63 16 35 8 -15 14 -42 12 -59z
m1210 66 c6 3 14 1 17 -5 5 -7 -1 -9 -16 -7 -12 1 -24 10 -26 18 -4 12 -3 13
5 1 5 -7 14 -11 20 -7z m52 1 c0 -8 -4 -15 -10 -15 -5 0 -7 7 -4 15 4 8 8 15
10 15 2 0 4 -7 4 -15z m59 -16 c-30 -7 -35 -3 -19 16 10 12 16 13 28 3 13 -11
11 -13 -9 -19z m138 9 c-3 -8 -6 -5 -6 6 -1 11 2 17 5 13 3 -3 4 -12 1 -19z
m20 -10 c-3 -7 -5 -2 -5 12 0 14 2 19 5 13 2 -7 2 -19 0 -25z m-1427 12 c0 -5
-5 -10 -11 -10 -5 0 -7 5 -4 10 3 6 8 10 11 10 2 0 4 -4 4 -10z m7337 -22 c-3
-8 -6 -5 -6 6 -1 11 2 17 5 13 3 -3 4 -12 1 -19z m-3572 2 c3 -5 -1 -10 -9
-10 -8 0 -18 5 -21 10 -3 6 1 10 9 10 8 0 18 -4 21 -10z m-7198 -6 c-3 -3 -12
-4 -19 -1 -8 3 -5 6 6 6 11 1 17 -2 13 -5z m10 -29 c2 -5 -10 -9 -27 -9 -44 2
-47 3 -30 14 18 12 52 9 57 -5z m4713 -17 c27 -29 25 -54 -6 -83 -29 -27 -34
-28 -58 -19 -11 4 -14 13 -9 32 5 22 3 24 -16 19 -16 -4 -21 -1 -21 16 0 53
71 76 110 35z m460 -72 c0 -3 -4 -8 -10 -11 -5 -3 -10 -1 -10 4 0 6 5 11 10
11 6 0 10 -2 10 -4z m3653 -263 c-7 -2 -19 -2 -25 0 -7 3 -2 5 12 5 14 0 19
-2 13 -5z m3043 -164 c27 -187 22 -794 -6 -794 -9 0 -12 77 -11 335 0 184 -3
340 -7 347 -4 6 -7 -125 -8 -290 0 -282 -4 -334 -31 -431 -4 -15 -7 -16 -14
-5 -13 21 -11 78 6 133 13 41 14 106 11 377 -3 208 -8 334 -15 347 -14 25 -14
72 -1 72 5 0 12 -17 16 -37 3 -21 13 -60 20 -88 14 -48 14 -47 8 55 -8 137 11
125 32 -21z m-3942 -109 c2 -8 5 17 6 55 1 39 5 81 9 95 16 55 24 -84 25 -428
1 -238 -3 -363 -10 -385 l-12 -32 -8 30 -8 30 -12 -40 c-7 -22 -13 -33 -13
-24 -1 9 -13 29 -28 43 l-27 28 21 16 c20 16 21 28 28 292 3 151 7 325 7 385
l1 110 8 -80 c5 -44 10 -87 13 -95z m791 160 c3 -5 -1 -10 -9 -10 -9 0 -16 5
-16 10 0 6 4 10 9 10 6 0 13 -4 16 -10z m2010 0 c3 -5 -1 -10 -9 -10 -9 0 -16
5 -16 10 0 6 4 10 9 10 6 0 13 -4 16 -10z m-5373 -55 c27 -49 28 -54 28 -220
l0 -171 -48 -47 -48 -47 -229 2 -229 3 -38 50 -38 50 0 133 c0 120 2 139 26
195 14 34 32 72 40 85 l15 22 247 -2 247 -3 27 -50z m2466 -360 c0 -165 -4
-313 -8 -330 l-7 -30 -8 30 c-5 17 -9 62 -8 100 1 39 1 189 2 334 0 145 4 273
8 285 14 41 21 -85 21 -389z m-4580 272 l42 -43 0 -102 0 -102 -251 -408
c-148 -240 -269 -426 -296 -453 -37 -39 -55 -49 -101 -58 -30 -6 -74 -11 -98
-11 -54 0 -460 135 -492 164 -52 47 -52 42 -52 533 l0 457 32 33 32 33 571 0
571 0 42 -43z m10051 6 c6 -5 17 -173 12 -179 -8 -8 -82 -4 -100 6 -15 8 -19
23 -19 91 -1 45 1 86 4 91 5 8 93 1 103 -9z m-4066 -3 c10 0 16 -4 13 -9 -4
-5 -134 -8 -309 -6 -373 3 -451 7 -307 14 87 5 192 5 603 1z m-2865 -5 c-2 -3
-49 -5 -104 -5 -121 -1 -191 -9 -173 -21 8 -5 26 -9 41 -9 32 0 46 -17 21 -23
-30 -8 -66 -1 -102 18 -28 14 -39 15 -54 6 -14 -10 -22 -9 -34 1 -12 10 -17 9
-28 -5 -10 -14 -14 -15 -18 -5 -4 8 -6 7 -6 -4 -1 -21 -34 -24 -50 -4 -9 10
-8 16 3 26 9 6 20 9 26 5 5 -3 10 1 10 9 0 14 29 16 237 16 130 0 234 -2 231
-5z m115 -2 c-7 -2 -21 -2 -30 0 -10 3 -4 5 12 5 17 0 24 -2 18 -5z m95 0
c-10 -2 -26 -2 -35 0 -10 3 -2 5 17 5 19 0 27 -2 18 -5z m272 -60 c30 -36 66
-78 79 -95 l23 -29 -32 -40 c-36 -45 -34 -60 4 -35 32 21 36 20 36 -5 0 -44
16 -57 64 -52 43 5 44 5 39 -21 -5 -25 -3 -26 35 -26 23 0 45 -6 52 -15 28
-34 96 -13 126 40 12 20 49 24 83 9 9 -4 18 -8 21 -9 3 -2 15 -6 28 -10 23 -8
39 -45 27 -64 -4 -7 -87 -11 -242 -11 -235 0 -236 0 -280 26 -59 34 -96 93
-87 140 5 30 4 33 -12 27 -12 -4 -15 -3 -10 5 4 7 0 15 -9 18 -27 11 -30 -5
-5 -31 13 -14 21 -27 18 -30 -2 -3 -15 9 -28 27 -18 25 -21 35 -11 49 15 25
14 29 -6 29 -9 0 -14 3 -10 6 3 4 26 6 50 6 31 -1 50 4 61 17 15 17 14 20 -13
51 -19 22 -34 31 -44 27 -19 -7 -48 28 -40 49 9 25 27 14 83 -53z m2932 55
c-8 -8 -17 -8 -34 0 -22 10 -21 11 12 11 26 1 31 -2 22 -11z m968 2 c0 -5 -6
-10 -14 -10 -8 0 -18 5 -21 10 -3 6 3 10 14 10 12 0 21 -4 21 -10z m2170 0 c0
-12 -28 -25 -36 -17 -9 9 6 27 22 27 8 0 14 -5 14 -10z m-398 -22 c-7 -7 -12
-8 -12 -2 0 14 12 26 19 19 2 -3 -1 -11 -7 -17z m-1161 2 c12 -7 19 -21 19
-40 0 -42 -15 -45 -41 -8 -13 18 -27 35 -31 36 -4 2 -8 8 -8 13 0 12 37 11 61
-1z m1369 -50 c0 -53 -7 -80 -21 -80 -10 0 -13 123 -3 133 15 14 24 -7 24 -53z
m-4380 40 c0 -5 -5 -20 -11 -33 -8 -18 -8 -30 1 -47 7 -13 7 -20 2 -16 -15 9
-35 74 -28 91 6 16 36 21 36 5z m3627 -139 c3 -86 1 -141 -5 -141 -9 0 -23
268 -15 283 11 19 15 -9 20 -142z m-13051 44 c-9 -24 -53 -47 -71 -38 -13 8
-9 15 25 42 22 17 41 40 41 49 1 9 4 4 6 -11 3 -16 2 -35 -1 -42z m566 23 l1
-33 4 33 c2 17 9 32 14 32 5 0 8 -44 7 -105 -2 -58 -6 -105 -10 -105 -9 0 -9
5 -12 64 -1 33 -5 41 -29 49 -23 7 -27 14 -27 46 0 42 5 51 32 51 13 0 18 -8
20 -32z m108 -8 c0 -29 -5 -42 -19 -50 -34 -18 -41 -12 -41 40 0 49 1 50 30
50 28 0 30 -2 30 -40z m6918 2 c11 -11 25 -21 32 -24 19 -6 3 -46 -21 -53 -11
-4 -48 -3 -83 0 -62 7 -63 7 -52 31 6 13 14 24 19 24 4 0 7 9 7 20 0 42 56 44
98 2z m-6122 -7 c32 -32 31 -82 -1 -77 -17 2 -17 1 -5 -8 13 -9 12 -12 -4 -25
-11 -8 -37 -15 -57 -15 -32 0 -43 6 -65 35 l-26 35 -99 0 c-89 0 -99 2 -99 18
0 15 18 21 118 36 64 10 122 20 127 21 38 12 88 3 111 -20z m5595 -20 c16 11
10 -7 -8 -22 -17 -13 -16 -14 5 -8 15 4 22 2 22 -8 0 -11 -18 -13 -85 -13 -47
1 -85 4 -85 9 0 4 7 7 15 7 8 0 12 6 9 14 -3 9 4 15 23 19 52 10 62 13 70 20
4 4 11 1 16 -8 4 -8 12 -13 18 -10z m859 5 c0 -5 -4 -10 -10 -10 -5 0 -10 5
-10 10 0 6 5 10 10 10 6 0 10 -4 10 -10z m3388 -25 c30 -5 45 -23 22 -26 -5
-1 -14 -3 -20 -4 -5 -1 -17 -3 -25 -4 -11 -1 -15 -14 -15 -51 0 -37 -4 -50
-14 -50 -10 0 -13 8 -10 23 2 12 -1 37 -7 55 -10 31 -12 32 -57 28 -26 -2 -62
-5 -80 -5 -31 -1 -32 -2 -20 -23 10 -20 13 -21 16 -5 5 24 31 22 29 -3 -1 -16
-8 -20 -38 -20 -33 0 -36 2 -32 24 4 22 1 24 -39 28 -42 5 -65 0 -40 -9 17 -7
15 -43 -3 -43 -9 0 -15 9 -15 24 0 27 -21 36 -91 36 -48 0 -69 -13 -69 -42 0
-10 -7 -18 -15 -18 -8 0 -15 9 -15 20 0 11 7 20 15 20 8 0 15 4 15 10 0 12
-51 10 -68 -4 -9 -7 -16 -6 -20 1 -5 7 -38 11 -85 11 -43 -1 -74 -4 -70 -7 11
-7 15 -51 5 -51 -14 0 -38 36 -34 49 3 10 -9 13 -54 11 -82 -4 -106 -2 -99 10
3 6 2 10 -4 10 -5 0 -12 -6 -14 -12 -3 -8 -6 -7 -6 4 -1 11 8 18 27 20 47 5
895 -1 930 -7z m-11497 -4 c-8 -5 -20 -7 -28 -4 -21 8 -15 13 15 13 20 0 23
-3 13 -9z m7319 -25 c-15 -15 -33 4 -19 20 10 12 14 12 20 2 5 -7 4 -17 -1
-22z m2435 24 c-3 -5 -26 -10 -50 -10 -24 0 -47 5 -50 10 -4 6 15 10 50 10 35
0 54 -4 50 -10z m662 4 c-3 -3 -12 -4 -19 -1 -8 3 -5 6 6 6 11 1 17 -2 13 -5z
m1624 -7 c10 -6 19 -17 19 -24 0 -14 -16 -18 -24 -5 -2 4 -34 6 -71 5 -45 -2
-76 2 -96 12 -22 12 -34 13 -49 5 -12 -6 -46 -10 -78 -9 -31 1 -64 -2 -73 -6
-10 -3 -20 -1 -24 4 -3 6 -11 9 -16 6 -5 -4 -15 -3 -21 2 -20 13 40 18 235 20
125 2 184 -1 198 -10z m196 7 c13 -4 20 -10 17 -15 -8 -14 -50 -10 -64 6 -10
12 -9 15 6 15 11 0 29 -3 41 -6z m420 -7 c3 -3 -10 -12 -28 -20 -19 -8 -36
-10 -39 -6 -3 4 -32 10 -65 14 -102 11 -86 25 24 21 56 -2 105 -6 108 -9z
m-5262 -7 c4 -6 -7 -10 -27 -9 -27 0 -30 2 -13 9 27 12 33 12 40 0z m60 0 c3
-5 -1 -10 -10 -10 -9 0 -13 5 -10 10 3 6 8 10 10 10 2 0 7 -4 10 -10z m4875 0
c0 -5 -4 -10 -9 -10 -6 0 -13 5 -16 10 -3 6 1 10 9 10 9 0 16 -4 16 -10z
m2097 -6 c1 -5 -2 -16 -7 -24 -12 -20 -35 2 -26 25 6 17 27 16 33 -1z m-12267
-4 c0 -6 11 -15 25 -20 14 -5 25 -16 25 -24 0 -8 7 -19 15 -24 14 -7 13 -12
-7 -37 -13 -16 -23 -43 -23 -60 0 -28 -3 -30 -40 -33 -41 -2 -82 15 -57 25 23
9 13 41 -18 52 -35 12 -39 26 -10 34 28 7 25 26 -5 37 -35 13 -31 28 10 36 19
3 35 10 35 15 0 5 11 9 25 9 14 0 25 -5 25 -10z m11283 -42 c-4 -23 -11 -28
-35 -28 -33 0 -33 5 2 48 28 34 42 26 33 -20z m-2553 1 c0 -11 -4 -17 -10 -14
-5 3 -10 15 -10 26 0 11 5 17 10 14 6 -3 10 -15 10 -26z m974 25 c9 -3 16 -15
16 -25 0 -24 -9 -24 -26 -1 -13 16 -13 16 -14 0 0 -20 -15 -24 -25 -8 -7 11
12 40 25 40 5 0 15 -3 24 -6z m-1296 -21 c-5 -25 -28 -28 -28 -4 0 12 6 21 16
21 9 0 14 -7 12 -17z m42 13 c0 -2 3 -11 6 -20 4 -10 1 -16 -9 -16 -8 0 -17 9
-20 20 -3 13 0 20 9 20 8 0 14 -2 14 -4z m95 -16 c0 -23 -69 -20 -73 3 -3 16
2 18 35 15 26 -2 38 -8 38 -18z m90 -9 c-9 -16 -25 -3 -18 15 4 10 9 12 15 6
6 -6 7 -15 3 -21z m145 -10 c0 -22 -5 -43 -11 -47 -8 -5 -10 1 -7 20 3 14 2
29 -3 32 -10 6 0 34 12 34 5 0 9 -18 9 -39z m90 24 c0 -8 -4 -15 -10 -15 -5 0
-10 7 -10 15 0 8 5 15 10 15 6 0 10 -7 10 -15z m100 -5 c0 -11 -4 -20 -10 -20
-5 0 -10 9 -10 20 0 11 5 20 10 20 6 0 10 -9 10 -20z m100 0 c0 -13 -7 -20
-20 -20 -13 0 -20 7 -20 20 0 13 7 20 20 20 13 0 20 -7 20 -20z m130 -1 c0
-11 -4 -17 -10 -14 -5 3 -10 13 -10 21 0 8 5 14 10 14 6 0 10 -9 10 -21z m50
1 c0 -11 -4 -20 -10 -20 -5 0 -10 9 -10 20 0 11 5 20 10 20 6 0 10 -9 10 -20z
m102 3 c11 -53 -22 -102 -35 -53 -3 11 -1 20 5 20 6 0 7 7 4 16 -7 17 0 34 14
34 5 0 10 -8 12 -17z m42 1 c8 -22 8 -24 -8 -24 -18 0 -29 16 -21 30 9 15 22
12 29 -6z m238 -18 c5 -25 -7 -56 -22 -56 -6 0 -8 73 -1 88 4 10 19 -11 23
-32z m138 -13 c0 -25 -3 -43 -7 -39 -12 11 -14 86 -3 86 6 0 10 -21 10 -47z
m50 21 c0 -8 -7 -14 -15 -14 -15 0 -21 21 -9 33 10 9 24 -2 24 -19z m50 6 c0
-11 -7 -20 -15 -20 -15 0 -21 21 -8 33 12 13 23 7 23 -13z m140 -6 c0 -8 -4
-14 -10 -14 -5 0 -10 9 -10 21 0 11 5 17 10 14 6 -3 10 -13 10 -21z m556 -1
c-10 -10 -19 5 -10 18 6 11 8 11 12 0 2 -7 1 -15 -2 -18z m332 0 c2 -14 -4
-26 -17 -33 -18 -9 -21 -7 -27 14 -3 14 -3 30 1 36 11 18 40 7 43 -17z m-3158
13 c0 -3 -4 -8 -10 -11 -5 -3 -10 -1 -10 4 0 6 5 11 10 11 6 0 10 -2 10 -4z
m100 0 c0 -3 -4 -8 -10 -11 -5 -3 -10 -1 -10 4 0 6 5 11 10 11 6 0 10 -2 10
-4z m90 -6 c0 -5 -4 -10 -10 -10 -5 0 -10 5 -10 10 0 6 5 10 10 10 6 0 10 -4
10 -10z m50 0 c0 -5 -2 -10 -4 -10 -3 0 -8 5 -11 10 -3 6 -1 10 4 10 6 0 11
-4 11 -10z m45 0 c3 -5 1 -10 -4 -10 -6 0 -11 5 -11 10 0 6 2 10 4 10 3 0 8
-4 11 -10z m235 6 c0 -3 -4 -8 -10 -11 -5 -3 -10 -1 -10 4 0 6 5 11 10 11 6 0
10 -2 10 -4z m45 -6 c3 -5 1 -10 -4 -10 -6 0 -11 5 -11 10 0 6 2 10 4 10 3 0
8 -4 11 -10z m375 0 c0 -5 -5 -10 -11 -10 -5 0 -7 5 -4 10 3 6 8 10 11 10 2 0
4 -4 4 -10z m240 0 c0 -5 -4 -10 -10 -10 -5 0 -10 5 -10 10 0 6 5 10 10 10 6
0 10 -4 10 -10z m528 -2 c-6 -18 -28 -21 -28 -4 0 9 7 16 16 16 9 0 14 -5 12
-12z m28 -15 c-10 -10 -19 5 -10 18 6 11 8 11 12 0 2 -7 1 -15 -2 -18z m60
-29 c-7 -26 -26 -33 -26 -9 0 8 -4 15 -10 15 -5 0 -10 -7 -10 -15 0 -22 -27
-18 -33 5 -5 18 -1 20 29 16 27 -3 34 0 33 13 -3 30 2 36 12 18 6 -10 8 -29 5
-43z m36 34 c-7 -7 -12 -8 -12 -2 0 14 12 26 19 19 2 -3 -1 -11 -7 -17z m388
7 c0 -8 -4 -15 -10 -15 -5 0 -10 7 -10 15 0 8 5 15 10 15 6 0 10 -7 10 -15z
m185 6 c3 -5 1 -12 -5 -16 -5 -3 -10 1 -10 9 0 18 6 21 15 7z m45 -7 c0 -8 -4
-12 -10 -9 -5 3 -10 10 -10 16 0 5 5 9 10 9 6 0 10 -7 10 -16z m-280 -4 c0 -5
-2 -10 -4 -10 -3 0 -8 5 -11 10 -3 6 -1 10 4 10 6 0 11 -4 11 -10z m135 0 c3
-5 1 -10 -4 -10 -6 0 -11 5 -11 10 0 6 2 10 4 10 3 0 8 -4 11 -10z m195 6 c0
-3 -4 -8 -10 -11 -5 -3 -10 -1 -10 4 0 6 5 11 10 11 6 0 10 -2 10 -4z m-3995
-26 c8 -13 -8 -18 -65 -23 -57 -5 -75 0 -59 19 13 16 114 19 124 4z m1024 -50
c0 -16 -22 -50 -32 -50 -3 0 -12 18 -18 40 -10 32 -9 43 1 55 12 15 15 14 32
-7 9 -13 18 -30 17 -38z m1165 54 c9 -3 16 -12 16 -20 0 -20 -13 -17 -28 6
-13 22 -12 23 12 14z m-607 -26 c-3 -8 -6 -5 -6 6 -1 11 2 17 5 13 3 -3 4 -12
1 -19z m576 16 c8 -8 -3 -34 -14 -34 -5 0 -9 9 -9 20 0 19 11 26 23 14z m147
-14 c0 -11 -7 -20 -15 -20 -8 0 -15 7 -15 15 0 8 -4 15 -10 15 -5 0 -10 -7
-10 -15 0 -8 -7 -15 -15 -15 -8 0 -15 9 -15 20 0 17 7 20 40 20 33 0 40 -3 40
-20z m40 0 c0 -11 -4 -20 -10 -20 -5 0 -10 2 -10 4 0 2 -3 11 -6 20 -4 11 -1
16 10 16 9 0 16 -8 16 -20z m50 0 c0 -11 -4 -20 -9 -20 -11 0 -22 26 -14 34
12 12 23 5 23 -14z m90 0 c0 -11 -4 -20 -10 -20 -5 0 -10 9 -10 20 0 11 5 20
10 20 6 0 10 -9 10 -20z m190 0 c0 -11 -4 -20 -10 -20 -5 0 -10 9 -10 20 0 11
5 20 10 20 6 0 10 -9 10 -20z m43 -5 c-7 -21 -13 -19 -13 6 0 11 4 18 10 14 5
-3 7 -12 3 -20z m55 2 c2 -10 -3 -17 -12 -17 -10 0 -16 9 -16 21 0 24 23 21
28 -4z m52 9 c0 -21 -21 -31 -30 -15 -5 7 -6 17 -4 21 9 14 34 9 34 -6z m46
-6 c0 -11 -6 -20 -13 -20 -7 0 -13 2 -13 4 0 2 -3 11 -6 20 -4 11 0 16 13 16
12 0 19 -7 19 -20z m40 -3 c1 -9 -4 -17 -12 -17 -8 0 -14 9 -14 21 0 24 22 21
26 -4z m54 19 c0 -2 -3 -11 -6 -20 -9 -23 -24 -20 -24 4 0 11 7 20 15 20 8 0
15 -2 15 -4z m40 -16 c0 -11 -4 -20 -10 -20 -5 0 -10 9 -10 20 0 11 5 20 10
20 6 0 10 -9 10 -20z m144 12 c2 -4 0 -14 -5 -22 -8 -13 -10 -13 -18 0 -10 15
-6 30 9 30 5 0 11 -4 14 -8z m46 -18 c0 -8 -6 -14 -14 -14 -9 0 -12 7 -9 20 6
22 23 18 23 -6z m135 -11 c-4 -19 -2 -24 12 -23 36 4 41 0 39 -32 -1 -29 2
-33 22 -30 18 1 22 -2 18 -16 -4 -11 2 -23 14 -32 26 -19 25 -45 -2 -65 -21
-14 -24 -14 -37 2 -9 13 -15 14 -18 6 -7 -18 -23 -16 -23 2 0 8 7 15 15 15 11
0 10 5 -6 21 -20 20 -21 20 -34 2 -13 -17 -14 -17 -21 0 -6 16 -8 17 -24 2
-14 -12 -20 -13 -25 -4 -5 7 1 19 15 29 16 12 21 23 15 38 -3 12 -11 22 -16
22 -5 0 -9 9 -9 20 0 11 5 20 10 20 6 0 10 -7 10 -15 0 -29 20 -15 21 15 1 17
3 35 4 40 1 6 3 13 4 16 0 3 6 2 12 -2 6 -3 8 -17 4 -31z m137 5 c-9 -9 -12
-7 -12 12 0 19 3 21 12 12 9 -9 9 -15 0 -24z m101 11 c-4 -13 -9 -17 -15 -11
-11 11 -3 32 12 32 4 0 6 -9 3 -21z m237 0 c-7 -11 -14 -18 -17 -15 -8 8 5 36
17 36 7 0 7 -6 0 -21z m-9940 -4 c0 -8 -4 -15 -10 -15 -5 0 -10 7 -10 15 0 8
5 15 10 15 6 0 10 -7 10 -15z m7630 5 c0 -5 -2 -10 -4 -10 -3 0 -8 5 -11 10
-3 6 -1 10 4 10 6 0 11 -4 11 -10z m570 6 c0 -3 -4 -8 -10 -11 -5 -3 -10 -1
-10 4 0 6 5 11 10 11 6 0 10 -2 10 -4z m377 -3 c-4 -3 -2 -12 5 -20 8 -11 7
-12 -6 -7 -18 7 -22 34 -4 34 6 0 8 -3 5 -7z m143 -8 c0 -8 -7 -15 -15 -15 -8
0 -15 7 -15 15 0 8 7 15 15 15 8 0 15 -7 15 -15z m37 -7 c-3 -8 -6 -5 -6 6 -1
11 2 17 5 13 3 -3 4 -12 1 -19z m993 12 c0 -5 -5 -10 -11 -10 -5 0 -7 5 -4 10
3 6 8 10 11 10 2 0 4 -4 4 -10z m100 -5 c0 -8 -4 -15 -9 -15 -5 0 -11 7 -15
15 -3 9 0 15 9 15 8 0 15 -7 15 -15z m44 0 c-4 -8 -8 -15 -10 -15 -2 0 -4 7
-4 15 0 8 4 15 10 15 5 0 7 -7 4 -15z m96 -6 c0 -5 -4 -9 -10 -9 -5 0 -10 7
-10 16 0 8 5 12 10 9 6 -3 10 -10 10 -16z m-11732 -39 c31 -30 31 -40 1 -40
-19 0 -49 35 -49 57 0 21 16 15 48 -17z m10061 -1 c11 18 34 4 28 -18 -3 -13
4 -16 32 -16 31 0 36 3 36 24 0 13 6 26 14 29 10 3 13 -2 9 -22 -4 -20 -1 -26
12 -26 13 0 16 6 12 25 -2 15 0 25 7 25 6 0 11 -6 11 -14 0 -25 21 -29 27 -6
5 18 10 20 37 14 17 -4 41 -8 53 -8 12 -1 24 -4 28 -8 4 -4 14 0 23 8 10 11
17 12 22 4 4 -6 14 -8 24 -4 11 4 22 0 31 -12 13 -18 14 -18 15 -1 0 9 4 17
10 17 10 0 18 -25 22 -75 2 -23 7 -29 21 -27 16 3 18 -1 12 -26 -6 -30 11 -55
24 -35 3 6 16 13 29 17 13 4 22 15 22 27 0 10 7 19 15 19 18 0 19 -11 3 -29
-10 -11 -10 -14 0 -18 22 -8 14 -35 -10 -33 -40 4 -58 0 -58 -10 0 -5 18 -10
40 -10 22 0 40 -5 40 -11 0 -6 -10 -9 -22 -8 -13 1 -31 -1 -40 -5 -10 -3 -24
-8 -31 -10 -7 -2 -13 -16 -15 -30 -1 -16 2 -25 8 -21 6 4 7 -2 1 -17 -6 -17
-16 -23 -41 -23 -17 0 -35 6 -39 14 -6 10 -13 11 -30 2 -17 -10 -21 -9 -21 4
0 11 12 15 50 15 28 0 50 5 50 10 0 6 -8 10 -17 10 -9 0 -24 7 -33 15 -9 8
-41 17 -70 20 -33 3 -58 11 -63 20 -4 8 -15 15 -23 15 -8 0 -12 -4 -9 -10 3
-5 2 -10 -4 -10 -6 0 -13 10 -16 23 -5 20 -11 22 -47 19 -27 -3 -43 0 -49 9
-8 12 -11 12 -19 -1 -8 -13 -11 -12 -24 5 -13 19 -15 19 -21 3 -9 -22 -25 -24
-25 -3 0 17 -16 20 -25 5 -4 -6 -11 -8 -16 -5 -5 4 -17 -2 -27 -11 -16 -17
-17 -16 -20 17 -3 32 -22 68 -22 41 0 -20 -22 -13 -46 16 -29 33 -30 48 -3 55
11 3 23 15 26 26 6 24 23 29 23 7 0 -8 7 -17 16 -20 9 -3 12 -2 9 5 -4 5 -4
18 0 27 6 15 8 15 21 -3 12 -16 16 -17 23 -6z m71 1 c0 -11 -6 -20 -14 -20 -9
0 -12 7 -9 20 3 11 9 20 14 20 5 0 9 -9 9 -20z m797 -16 c-4 -25 -2 -26 78
-26 42 0 45 1 42 23 -1 12 4 24 11 26 8 3 12 -9 12 -40 0 -37 -4 -47 -20 -52
-11 -4 -20 -15 -20 -26 0 -14 -6 -19 -17 -17 -12 2 -18 12 -17 31 1 15 -1 27
-3 27 -16 0 -73 -31 -73 -40 0 -6 -5 -8 -11 -5 -6 4 -8 14 -5 22 4 10 0 13
-12 11 -9 -2 -18 -14 -20 -26 -3 -22 -4 -23 -17 -5 -13 17 -14 17 -20 1 -10
-24 -21 -22 -29 5 -6 22 -7 22 -18 2 -17 -30 -17 -30 -33 -9 -12 16 -14 16
-15 3 0 -33 -80 -27 -80 6 0 23 27 18 35 -7 6 -21 8 -21 12 -4 3 10 -1 22 -8
27 -11 6 -10 11 6 23 11 8 16 18 12 23 -5 4 -13 0 -18 -10 -17 -29 -29 -19
-29 24 0 28 4 39 13 36 6 -2 11 -11 9 -21 -4 -23 15 -20 23 4 9 29 25 25 26
-7 1 -16 1 -31 0 -35 0 -5 4 -8 9 -8 6 0 10 16 10 36 0 24 4 34 13 31 6 -2 12
-19 12 -37 0 -18 6 -35 13 -37 6 -3 12 2 12 11 0 18 16 21 26 5 5 -8 10 -6 16
5 12 21 42 22 34 0 -4 -10 -1 -14 6 -11 7 2 14 15 15 28 0 13 1 30 2 37 1 7 6
10 12 6 6 -3 9 -17 6 -30z m48 11 c0 -10 -6 -20 -12 -22 -8 -3 -13 5 -13 22 0
17 5 25 13 23 6 -3 12 -13 12 -23z m135 0 c0 -14 -4 -25 -10 -25 -5 0 -10 11
-10 25 0 14 5 25 10 25 6 0 10 -11 10 -25z m-1603 -7 c-3 -8 -6 -5 -6 6 -1 11
2 17 5 13 3 -3 4 -12 1 -19z m1040 -18 c0 -43 -12 -54 -19 -17 -5 28 1 57 11
57 5 0 8 -18 8 -40z m53 31 c0 -6 -4 -13 -10 -16 -5 -3 -10 1 -10 9 0 9 5 16
10 16 6 0 10 -4 10 -9z m42 -35 c-2 -20 -8 -33 -13 -30 -10 6 -12 57 -3 67 13
13 20 -3 16 -37z m184 17 c-10 -10 -19 5 -10 18 6 11 8 11 12 0 2 -7 1 -15 -2
-18z m54 18 c0 -6 -4 -13 -10 -16 -5 -3 -10 1 -10 9 0 9 5 16 10 16 6 0 10 -4
10 -9z m143 -5 c6 -15 -1 -26 -15 -26 -4 0 -8 9 -8 20 0 23 15 27 23 6z m277
4 c0 -5 -4 -10 -10 -10 -5 0 -10 5 -10 10 0 6 5 10 10 10 6 0 10 -4 10 -10z
m43 -5 c4 -8 2 -17 -3 -20 -6 -4 -10 3 -10 14 0 25 6 27 13 6z m44 -7 c-3 -8
-6 -5 -6 6 -1 11 2 17 5 13 3 -3 4 -12 1 -19z m53 7 c0 -8 -4 -15 -10 -15 -5
0 -10 7 -10 15 0 8 5 15 10 15 6 0 10 -7 10 -15z m50 11 c0 -3 -4 -8 -10 -11
-5 -3 -10 -1 -10 4 0 6 5 11 10 11 6 0 10 -2 10 -4z m87 -18 c-3 -8 -6 -5 -6
6 -1 11 2 17 5 13 3 -3 4 -12 1 -19z m53 12 c0 -5 -2 -10 -4 -10 -3 0 -8 5
-11 10 -3 6 -1 10 4 10 6 0 11 -4 11 -10z m50 0 c0 -5 -4 -10 -10 -10 -5 0
-10 5 -10 10 0 6 5 10 10 10 6 0 10 -4 10 -10z m90 -10 c0 -11 -4 -20 -10 -20
-5 0 -10 9 -10 20 0 11 5 20 10 20 6 0 10 -9 10 -20z m-11018 -22 c-7 -7 -35
-8 -79 -3 -81 9 -60 21 28 17 42 -3 58 -7 51 -14z m12375 -15 c-14 -15 -29
-24 -33 -20 -3 3 7 17 22 31 38 32 46 23 11 -11z m-12890 21 c-3 -3 -12 -4
-19 -1 -8 3 -5 6 6 6 11 1 17 -2 13 -5z m276 -1 c-13 -2 -33 -2 -45 0 -13 2
-3 4 22 4 25 0 35 -2 23 -4z m60 0 c-7 -2 -19 -2 -25 0 -7 3 -2 5 12 5 14 0
19 -2 13 -5z m10027 -17 c0 -8 -4 -18 -10 -21 -5 -3 -10 3 -10 14 0 12 5 21
10 21 6 0 10 -6 10 -14z m2109 -38 c-1 -29 -5 -80 -9 -113 -6 -53 -7 -48 -9
53 0 69 3 112 9 112 6 0 10 -23 9 -52z m-2869 26 c0 -8 -5 -12 -10 -9 -6 4 -8
11 -5 16 9 14 15 11 15 -7z m50 6 c0 -5 -5 -10 -11 -10 -5 0 -7 5 -4 10 3 6 8
10 11 10 2 0 4 -4 4 -10z m1270 -11 c0 -5 -4 -9 -10 -9 -5 0 -10 7 -10 16 0 8
5 12 10 9 6 -3 10 -10 10 -16z m556 -6 c-10 -10 -19 5 -10 18 6 11 8 11 12 0
2 -7 1 -15 -2 -18z m484 -15 c0 -28 -3 -39 -10 -32 -9 9 -3 74 6 74 2 0 4 -19
4 -42z m-435 22 c3 -5 1 -10 -4 -10 -6 0 -11 5 -11 10 0 6 2 10 4 10 3 0 8 -4
11 -10z m-12346 -21 c-12 -24 -39 -25 -39 -1 0 11 8 17 25 18 21 2 23 -1 14
-17z m2311 11 c0 -5 -4 -10 -9 -10 -6 0 -13 5 -16 10 -3 6 1 10 9 10 9 0 16
-4 16 -10z m8863 -36 c-4 -12 -8 -13 -14 -3 -9 15 -2 32 11 24 5 -3 6 -13 3
-21z m880 13 c13 -9 16 -20 11 -43 l-6 -31 -24 22 c-42 39 -25 85 19 52z
m-10309 -18 c-3 -5 -10 -7 -15 -3 -5 3 -7 10 -3 15 3 5 10 7 15 3 5 -3 7 -10
3 -15z m456 12 c0 -16 -28 -20 -40 -5 -10 12 -8 14 14 14 14 0 26 -4 26 -9z
m7990 -12 c0 -5 -4 -9 -10 -9 -5 0 -10 7 -10 16 0 8 5 12 10 9 6 -3 10 -10 10
-16z m90 6 c0 -8 -4 -15 -10 -15 -5 0 -10 7 -10 15 0 8 5 15 10 15 6 0 10 -7
10 -15z m100 -6 c0 -5 -4 -9 -10 -9 -5 0 -10 7 -10 16 0 8 5 12 10 9 6 -3 10
-10 10 -16z m40 6 c0 -8 -4 -15 -10 -15 -5 0 -7 7 -4 15 4 8 8 15 10 15 2 0 4
-7 4 -15z m100 -6 c0 -5 -4 -9 -10 -9 -5 0 -10 7 -10 16 0 8 5 12 10 9 6 -3
10 -10 10 -16z m1032 6 c0 -5 -5 -11 -11 -13 -6 -2 -11 4 -11 13 0 9 5 15 11
13 6 -2 11 -8 11 -13z m-1412 -5 c0 -5 -4 -10 -10 -10 -5 0 -10 5 -10 10 0 6
5 10 10 10 6 0 10 -4 10 -10z m90 0 c0 -5 -4 -10 -10 -10 -5 0 -10 5 -10 10 0
6 5 10 10 10 6 0 10 -4 10 -10z m240 6 c0 -3 -4 -8 -10 -11 -5 -3 -10 -1 -10
4 0 6 5 11 10 11 6 0 10 -2 10 -4z m1180 -6 c0 -5 -4 -10 -10 -10 -5 0 -10 5
-10 10 0 6 5 10 10 10 6 0 10 -4 10 -10z m40 0 c0 -5 -4 -10 -10 -10 -5 0 -10
5 -10 10 0 6 5 10 10 10 6 0 10 -4 10 -10z m425 0 c3 -5 1 -10 -4 -10 -6 0
-11 5 -11 10 0 6 2 10 4 10 3 0 8 -4 11 -10z m235 0 c0 -5 -4 -10 -10 -10 -5
0 -10 5 -10 10 0 6 5 10 10 10 6 0 10 -4 10 -10z m-10050 -25 c0 -8 -7 -15
-15 -15 -16 0 -20 12 -8 23 11 12 23 8 23 -8z m-120 -9 c0 -15 -21 -26 -51
-26 -22 0 -24 11 -7 28 17 17 58 15 58 -2z m7910 -12 c0 -8 -4 -12 -10 -9 -5
3 -10 10 -10 16 0 5 5 9 10 9 6 0 10 -7 10 -16z m50 1 c0 -8 -4 -15 -10 -15
-5 0 -10 7 -10 15 0 8 5 15 10 15 6 0 10 -7 10 -15z m50 -6 c0 -5 -4 -9 -10
-9 -5 0 -10 7 -10 16 0 8 5 12 10 9 6 -3 10 -10 10 -16z m37 -1 c-3 -8 -6 -5
-6 6 -1 11 2 17 5 13 3 -3 4 -12 1 -19z m1080 0 c-3 -8 -6 -5 -6 6 -1 11 2 17
5 13 3 -3 4 -12 1 -19z m53 6 c0 -8 -4 -12 -10 -9 -5 3 -10 10 -10 16 0 5 5 9
10 9 6 0 10 -7 10 -16z m187 -6 c-3 -8 -6 -5 -6 6 -1 11 2 17 5 13 3 -3 4 -12
1 -19z m237 7 c-6 -16 -24 -21 -24 -7 0 11 11 22 21 22 5 0 6 -7 3 -15z m236
5 c0 -5 -4 -10 -10 -10 -5 0 -10 5 -10 10 0 6 5 10 10 10 6 0 10 -4 10 -10z
m-1970 -4 c0 -3 -4 -8 -10 -11 -5 -3 -10 -1 -10 4 0 6 5 11 10 11 6 0 10 -2
10 -4z m1685 -6 c3 -5 1 -10 -4 -10 -6 0 -11 5 -11 10 0 6 2 10 4 10 3 0 8 -4
11 -10z m715 0 c0 -5 -4 -10 -10 -10 -5 0 -10 5 -10 10 0 6 5 10 10 10 6 0 10
-4 10 -10z m90 0 c0 -5 -4 -10 -10 -10 -5 0 -10 5 -10 10 0 6 5 10 10 10 6 0
10 -4 10 -10z m-3123 -14 c2 -1 -4 -19 -12 -39 -10 -24 -22 -38 -35 -38 -11
-1 -25 -2 -31 -3 -6 -1 -12 20 -14 48 l-3 48 46 -6 c25 -3 47 -8 49 -10z
m1386 -12 c14 -14 -7 -34 -36 -34 l-30 0 23 20 c24 21 33 24 43 14z m-716 -26
c-3 -8 -6 -5 -6 6 -1 11 2 17 5 13 3 -3 4 -12 1 -19z m1323 12 c0 -5 -4 -10
-10 -10 -5 0 -10 5 -10 10 0 6 5 10 10 10 6 0 10 -4 10 -10z m37 -12 c-3 -8
-6 -5 -6 6 -1 11 2 17 5 13 3 -3 4 -12 1 -19z m49 -5 c-10 -10 -19 5 -10 18 6
11 8 11 12 0 2 -7 1 -15 -2 -18z m292 15 c-6 -18 -25 -20 -31 -3 -5 10 0 15
14 15 12 0 19 -5 17 -12z m102 1 c0 -7 -10 -9 -27 -5 -17 5 -29 3 -34 -6 -4
-7 -11 -9 -14 -6 -4 4 -4 11 0 17 8 14 75 14 75 0z m130 -10 c0 -5 -4 -9 -10
-9 -5 0 -10 7 -10 16 0 8 5 12 10 9 6 -3 10 -10 10 -16z m-750 7 c0 -3 -4 -8
-10 -11 -5 -3 -10 -1 -10 4 0 6 5 11 10 11 6 0 10 -2 10 -4z m90 0 c0 -3 -4
-8 -10 -11 -5 -3 -10 -1 -10 4 0 6 5 11 10 11 6 0 10 -2 10 -4z m240 -6 c0 -5
-4 -10 -9 -10 -6 0 -13 5 -16 10 -3 6 1 10 9 10 9 0 16 -4 16 -10z m90 6 c0
-3 -4 -8 -10 -11 -5 -3 -10 -1 -10 4 0 6 5 11 10 11 6 0 10 -2 10 -4z m705 -6
c3 -5 -1 -10 -10 -10 -9 0 -13 5 -10 10 3 6 8 10 10 10 2 0 7 -4 10 -10z m45
0 c0 -5 -4 -10 -10 -10 -5 0 -10 5 -10 10 0 6 5 10 10 10 6 0 10 -4 10 -10z
m-857 -31 c7 0 3 -4 -8 -9 -29 -13 -35 -12 -35 6 0 11 5 14 16 10 9 -3 21 -6
27 -7z m-643 -3 c0 -3 -4 -8 -10 -11 -5 -3 -10 -1 -10 4 0 6 5 11 10 11 6 0
10 -2 10 -4z m90 -6 c0 -5 -4 -10 -10 -10 -5 0 -10 5 -10 10 0 6 5 10 10 10 6
0 10 -4 10 -10z m-240 -41 c0 -5 -29 -9 -65 -9 -38 0 -65 4 -65 10 0 7 26 10
65 9 36 -1 65 -6 65 -10z m145 1 c3 -5 -1 -10 -10 -10 -9 0 -13 5 -10 10 3 6
8 10 10 10 2 0 7 -4 10 -10z m613 -2 c-6 -18 -28 -21 -28 -4 0 9 7 16 16 16 9
0 14 -5 12 -12z m42 -3 c0 -8 -4 -15 -9 -15 -5 0 -11 7 -15 15 -3 9 0 15 9 15
8 0 15 -7 15 -15z m-620 -5 c0 -5 -4 -10 -10 -10 -5 0 -10 5 -10 10 0 6 5 10
10 10 6 0 10 -4 10 -10z m200 0 c0 -5 -2 -10 -4 -10 -3 0 -8 5 -11 10 -3 6 -1
10 4 10 6 0 11 -4 11 -10z m187 4 c-3 -3 -12 -4 -19 -1 -8 3 -5 6 6 6 11 1 17
-2 13 -5z m473 2 c0 -3 -4 -8 -10 -11 -5 -3 -10 -1 -10 4 0 6 5 11 10 11 6 0
10 -2 10 -4z m180 -6 c0 -5 -4 -10 -10 -10 -5 0 -10 5 -10 10 0 6 5 10 10 10
6 0 10 -4 10 -10z m-2526 -22 c11 -10 18 -18 15 -19 -2 0 -22 -2 -44 -5 -22
-2 -45 -6 -51 -8 -7 -3 -30 0 -53 6 -39 10 -41 12 -26 28 22 24 132 23 159 -2z
m-7295 -11 c14 -18 4 -27 -31 -27 -21 0 -28 5 -28 20 0 24 41 28 59 7z m8561
9 c0 -3 -4 -8 -10 -11 -5 -3 -10 -1 -10 4 0 6 5 11 10 11 6 0 10 -2 10 -4z
m412 -15 c-1 -7 2 -19 8 -26 8 -10 8 -15 -1 -21 -7 -4 -17 0 -24 9 -7 10 -15
13 -21 7 -5 -4 -25 -10 -44 -12 -44 -4 -51 25 -7 30 15 2 25 8 22 13 -4 5 -2
9 4 9 5 0 11 -6 14 -12 3 -9 7 -7 12 5 8 20 42 18 37 -2z m1803 -11 c3 -5 -1
-10 -10 -10 -9 0 -13 5 -10 10 3 6 8 10 10 10 2 0 7 -4 10 -10z m-12935 -20
c0 -5 -11 -10 -25 -10 -14 0 -25 5 -25 10 0 6 11 10 25 10 14 0 25 -4 25 -10z
m10160 1 c0 -6 -4 -13 -10 -16 -5 -3 -10 1 -10 9 0 9 5 16 10 16 6 0 10 -4 10
-9z m465 -1 c3 -5 -1 -10 -9 -10 -9 0 -16 5 -16 10 0 6 4 10 9 10 6 0 13 -4
16 -10z m45 0 c0 -5 -4 -10 -9 -10 -6 0 -13 5 -16 10 -3 6 1 10 9 10 9 0 16
-4 16 -10z m50 0 c0 -5 -4 -10 -10 -10 -5 0 -10 5 -10 10 0 6 5 10 10 10 6 0
10 -4 10 -10z m-9960 -198 c0 -10 -6 -27 -14 -38 -14 -18 -15 -18 -25 9 -16
41 -14 47 14 47 17 0 25 -5 25 -18z m370 14 c0 -3 -5 -17 -11 -33 -10 -27 -11
-27 -25 -9 -21 29 -17 46 11 46 14 0 25 -2 25 -4z m-953 -113 c-9 -9 -19 -14
-23 -11 -10 10 6 28 24 28 15 0 15 -1 -1 -17z m313 -83 c0 -5 -4 -10 -10 -10
-5 0 -10 5 -10 10 0 6 5 10 10 10 6 0 10 -4 10 -10z m70 -140 c0 -19 -20 -27
-33 -13 -8 7 11 33 24 33 5 0 9 -9 9 -20z m836 -84 c11 -17 13 -30 6 -42 -8
-15 -11 -14 -26 7 -18 26 -21 59 -6 59 5 0 17 -11 26 -24z m360 -36 c12 0 38
-59 30 -68 -3 -2 -17 -1 -31 2 -32 8 -50 45 -40 83 7 28 7 28 18 6 5 -13 16
-23 23 -23z m-826 -108 c0 -25 -26 -40 -41 -25 -5 5 -6 31 -3 57 l7 47 18 -28
c11 -15 19 -38 19 -51z m1767 36 c-3 -8 -6 -5 -6 6 -1 11 2 17 5 13 3 -3 4
-12 1 -19z m-1051 -18 c15 -6 24 -13 22 -16 -3 -3 -21 2 -39 10 -39 16 -24 21
17 6z m1051 -77 c-2 -16 -4 -5 -4 22 0 28 2 40 4 28 2 -13 2 -35 0 -50z m-242
-143 c3 -5 -1 -10 -9 -10 -8 0 -18 5 -21 10 -3 6 1 10 9 10 8 0 18 -4 21 -10z
m-357 -19 c3 -8 -1 -12 -9 -9 -7 2 -15 10 -17 17 -3 8 1 12 9 9 7 -2 15 -10
17 -17z m467 -21 c8 -13 -15 -13 -35 0 -12 8 -11 10 7 10 12 0 25 -4 28 -10z
m-1105 -10 c0 -5 -4 -10 -10 -10 -5 0 -10 5 -10 10 0 6 5 10 10 10 6 0 10 -4
10 -10z m2945 -66 c0 -22 -15 -47 -15 -26 0 19 -27 14 -35 -5 -6 -14 -10 -10
-21 21 -17 47 -8 57 39 43 25 -8 33 -16 32 -33z m-1664 15 c74 -24 153 -58
147 -64 -5 -5 -214 67 -224 78 -12 12 9 8 77 -14z m-1661 -45 c0 -8 -5 -12
-10 -9 -6 4 -8 11 -5 16 9 14 15 11 15 -7z m-55 -15 c4 -11 4 -23 1 -27 -10
-9 -39 25 -32 37 11 17 24 13 31 -10z m1920 -19 c8 -13 -5 -13 -25 0 -13 8
-13 10 2 10 9 0 20 -4 23 -10z m-1861 -15 c3 -9 0 -15 -9 -15 -16 0 -27 14
-18 24 10 10 21 7 27 -9z m2179 -80 c37 -43 37 -45 14 -45 -13 0 -30 6 -39 13
-16 13 -33 77 -20 77 4 0 25 -20 45 -45z m1195 7 c2 -7 -3 -12 -12 -12 -9 0
-16 7 -16 16 0 17 22 14 28 -4z m-2563 -13 c11 -17 -1 -21 -15 -4 -8 9 -8 15
-2 15 6 0 14 -5 17 -11z m2404 -55 c14 -32 8 -42 -14 -20 -9 9 -21 16 -26 16
-5 0 -9 7 -9 15 0 25 36 17 49 -11z m-2889 -4 c0 -5 -4 -10 -10 -10 -5 0 -10
5 -10 10 0 6 5 10 10 10 6 0 10 -4 10 -10z m1620 -49 c0 -5 3 -17 7 -26 5 -14
2 -16 -18 -10 -31 10 -33 11 -26 30 7 16 37 21 37 6z m-370 -49 c0 -19 -18
-42 -32 -42 -12 0 -9 35 4 48 17 17 28 15 28 -6z m276 -24 c9 -18 22 -36 28
-40 6 -5 2 -8 -11 -8 -31 0 -51 24 -46 54 7 33 9 33 29 -6z m-1235 5 c18 -9
28 -18 23 -20 -16 -5 -64 15 -64 27 0 13 1 13 41 -7z m2998 -53 c0 -10 -3 -8
-9 5 -12 27 -12 43 0 25 5 -8 9 -22 9 -30z m-1024 0 c3 -5 17 -10 30 -10 15 0
29 -9 36 -21 10 -20 9 -21 -17 -15 -35 9 -74 33 -74 46 0 13 17 13 25 0z
m-665 -10 c13 -8 13 -10 -2 -10 -9 0 -20 5 -23 10 -8 13 5 13 25 0z m51 -28
c-7 -2 -18 1 -23 6 -8 8 -4 9 13 5 13 -4 18 -8 10 -11z m1634 -121 c-4 -17
-11 -31 -17 -31 -6 0 -7 8 -3 18 4 9 10 25 12 35 9 29 15 11 8 -22z m-563 -3
c-6 -6 -15 -8 -19 -4 -4 4 -1 11 7 16 19 12 27 3 12 -12z m206 -130 c11 -20
18 -39 15 -42 -9 -9 -61 -7 -67 2 -3 5 -2 42 1 83 l7 74 12 -40 c6 -22 21 -56
32 -77z m325 59 c-7 -36 -60 -77 -110 -83 l-38 -5 44 23 c28 14 51 35 60 55 9
18 23 34 31 36 20 4 19 6 13 -26z m-1035 -25 c3 -23 -5 -27 -32 -16 -19 7 -21
30 -3 37 20 9 32 2 35 -21z"/>
<path d="M10108 5743 c7 -3 16 -2 19 1 4 3 -2 6 -13 5 -11 0 -14 -3 -6 -6z"/>
<path d="M10820 5652 c0 -7 -7 -9 -17 -5 -15 6 -16 4 -6 -8 11 -14 12 -17 14
-41 0 -7 5 2 10 21 6 18 8 36 5 39 -3 3 -6 0 -6 -6z"/>
<path d="M10690 5544 c0 -8 5 -12 10 -9 6 3 10 10 10 16 0 5 -4 9 -10 9 -5 0
-10 -7 -10 -16z"/>
<path d="M10621 5534 c-38 -17 -37 -30 1 -15 18 7 29 6 37 -2 8 -8 11 -5 11
11 0 25 -3 26 -49 6z"/>
<path d="M10848 5543 c-16 -4 -33 -32 -24 -40 2 -3 14 5 26 17 24 24 23 28 -2
23z"/>
<path d="M10780 5520 c-8 -5 -11 -12 -7 -16 4 -4 13 -2 19 4 15 15 7 24 -12
12z"/>
<path d="M11898 4483 c7 -3 16 -2 19 1 4 3 -2 6 -13 5 -11 0 -14 -3 -6 -6z"/>
<path d="M3701 4496 c-16 -19 -11 -29 8 -17 7 5 12 14 9 21 -3 9 -8 7 -17 -4z"/>
<path d="M3160 4516 c0 -2 7 -6 15 -10 8 -3 15 -1 15 4 0 6 -7 10 -15 10 -8 0
-15 -2 -15 -4z"/>
<path d="M2291 4434 c0 -11 3 -14 6 -6 3 7 2 16 -1 19 -3 4 -6 -2 -5 -13z"/>
<path d="M3196 4054 c-8 -22 -7 -34 3 -34 5 0 9 11 9 25 0 29 -3 31 -12 9z"/>
<path d="M3222 3996 c2 -22 9 -41 16 -44 17 -5 15 40 -3 64 -14 18 -15 17 -13
-20z"/>
<path d="M3160 3970 c0 -5 7 -10 16 -10 8 0 12 5 9 10 -3 6 -10 10 -16 10 -5
0 -9 -4 -9 -10z"/>
<path d="M18075 4010 c3 -5 11 -10 16 -10 6 0 7 5 4 10 -3 6 -11 10 -16 10 -6
0 -7 -4 -4 -10z"/>
<path d="M18085 3960 c3 -5 8 -10 11 -10 2 0 4 5 4 10 0 6 -5 10 -11 10 -5 0
-7 -4 -4 -10z"/>
<path d="M4681 3884 c0 -11 3 -14 6 -6 3 7 2 16 -1 19 -3 4 -6 -2 -5 -13z"/>
<path d="M10203 2485 c0 -22 2 -30 4 -17 2 12 2 30 0 40 -3 9 -5 -1 -4 -23z"/>
<path d="M10203 2375 c0 -27 2 -38 4 -22 2 15 2 37 0 50 -2 12 -4 0 -4 -28z"/>
<path d="M10200 2193 c0 -21 3 -24 9 -14 5 8 7 20 4 28 -8 21 -13 15 -13 -14z"/>
<path d="M10198 2083 c-2 -37 0 -84 3 -103 l7 -35 3 40 c3 46 -1 158 -6 163
-2 2 -5 -27 -7 -65z"/>
<path d="M9600 2210 c0 -5 5 -10 10 -10 6 0 10 5 10 10 0 6 -4 10 -10 10 -5 0
-10 -4 -10 -10z"/>
<path d="M3138 2353 c-10 -2 -18 -9 -18 -14 0 -14 16 -11 30 6 7 8 11 14 9 14
-2 -1 -12 -3 -21 -6z"/>
<path d="M3159 2238 c-10 -35 -7 -48 11 -48 15 0 20 7 20 25 0 16 -6 25 -15
25 -8 0 -15 -1 -16 -2z"/>
<path d="M11580 2180 c0 -5 5 -10 11 -10 5 0 7 5 4 10 -3 6 -8 10 -11 10 -2 0
-4 -4 -4 -10z"/>
<path d="M11909 2168 c-7 -15 -3 -66 4 -61 5 3 7 14 4 24 -3 10 0 20 6 22 8 2
7 6 -1 11 -7 4 -13 6 -13 4z"/>
<path d="M11900 2070 c0 -5 -7 -10 -15 -10 -8 0 -15 -5 -15 -11 0 -7 9 -9 23
-5 12 3 25 6 29 6 11 0 -2 30 -13 30 -5 0 -9 -4 -9 -10z"/>
<path d="M12246 5476 c17 -8 34 -22 38 -32 5 -13 9 -15 18 -6 14 14 48 16 48
3 0 -5 28 -9 63 -9 64 0 116 -14 129 -35 5 -7 8 0 8 16 l0 28 83 -5 c45 -3
-15 8 -133 24 -118 16 -231 29 -250 29 l-35 0 31 -13z"/>
<path d="M12198 5443 c7 -3 16 -2 19 1 4 3 -2 6 -13 5 -11 0 -14 -3 -6 -6z"/>
<path d="M12738 5423 c12 -2 30 -2 40 0 9 3 -1 5 -23 4 -22 0 -30 -2 -17 -4z"/>
<path d="M12829 5406 c7 -9 22 -16 32 -16 21 0 26 -19 7 -22 -7 -1 16 -4 52
-8 l65 -6 -35 -16 c-19 -10 -30 -17 -23 -18 7 0 10 -7 7 -15 -4 -8 -1 -15 5
-15 6 0 12 10 12 23 1 16 2 18 6 5 2 -10 11 -18 19 -18 11 0 13 6 9 20 -5 15
-2 20 13 20 19 0 52 -29 52 -46 0 -5 14 -22 31 -38 26 -25 30 -35 25 -60 -15
-73 -117 -106 -197 -65 -22 11 -39 17 -39 13 0 -4 -7 -1 -15 6 -12 10 -15 9
-15 -8 0 -37 12 -82 21 -76 5 3 9 -2 9 -10 0 -9 -4 -16 -10 -16 -5 0 -10 -13
-10 -30 0 -36 6 -37 29 -8 25 30 54 19 41 -17 -5 -14 -6 -25 -2 -25 4 0 -4 -9
-17 -19 -14 -10 -31 -17 -38 -14 -16 6 -19 -62 -3 -72 8 -5 7 -11 -1 -21 -7
-8 -7 -14 -1 -14 5 0 12 7 16 15 8 21 26 19 26 -3 0 -30 31 -50 69 -46 25 3
32 1 28 -10 -5 -12 13 -14 99 -13 57 1 104 5 104 9 0 5 7 8 15 8 8 0 15 -4 15
-10 0 -5 12 -10 26 -10 14 0 23 4 19 10 -3 6 3 10 15 10 12 0 18 -4 15 -10 -3
-5 -1 -10 4 -10 18 0 12 48 -6 59 -16 10 -16 11 5 17 23 6 23 9 19 103 -4 86
-14 187 -32 334 -4 33 -2 47 5 42 6 -4 10 5 10 21 0 21 -3 24 -14 15 -10 -9
-15 -8 -19 2 -4 10 -40 18 -119 26 -62 7 -138 16 -168 21 -30 5 -82 12 -115
16 -55 6 -59 6 -46 -10z m408 -598 c-3 -8 -6 -5 -6 6 -1 11 2 17 5 13 3 -3 4
-12 1 -19z m-292 2 c3 -5 1 -10 -4 -10 -6 0 -11 5 -11 10 0 6 2 10 4 10 3 0 8
-4 11 -10z"/>
<path d="M12188 5393 c7 -3 16 -2 19 1 4 3 -2 6 -13 5 -11 0 -14 -3 -6 -6z"/>
<path d="M12230 5385 c0 -8 -5 -15 -11 -15 -5 0 -7 -4 -4 -10 3 -5 16 -10 28
-10 31 -1 61 -26 54 -45 -4 -8 -2 -15 3 -15 6 0 10 7 10 15 0 8 9 19 21 26 27
14 12 30 -33 34 -18 2 -36 3 -40 4 -5 1 -8 8 -8 16 0 8 -4 15 -10 15 -5 0 -10
-7 -10 -15z"/>
<path d="M12270 5384 c0 -9 5 -14 12 -12 18 6 21 28 4 28 -9 0 -16 -7 -16 -16z"/>
<path d="M12370 5390 c0 -5 5 -10 10 -10 6 0 10 5 10 10 0 6 -4 10 -10 10 -5
0 -10 -4 -10 -10z"/>
<path d="M13341 5324 c0 -11 3 -14 6 -6 3 7 2 16 -1 19 -3 4 -6 -2 -5 -13z"/>
<path d="M13482 5055 l-2 -285 47 -1 c143 -4 331 0 348 7 11 4 30 16 41 26 15
13 40 20 83 22 34 2 64 6 68 10 3 3 21 6 40 6 18 0 33 5 33 10 0 6 -7 10 -15
10 -8 0 -15 5 -15 11 0 6 7 9 15 6 8 -4 17 -2 21 4 3 6 -3 13 -15 16 -32 8
-25 28 14 40 36 12 75 7 75 -8 0 -17 18 -9 22 9 7 27 81 20 149 -12 29 -14 55
-26 57 -26 2 0 2 19 0 43 -3 25 1 53 9 70 17 35 14 132 -5 132 -18 0 -31 24
-26 52 2 12 0 23 -6 23 -5 0 -10 5 -10 11 0 7 11 9 30 6 17 -4 30 -3 30 1 0 6
-934 104 -975 102 -6 0 -11 -104 -13 -285z m430 226 c4 -3 -23 -6 -60 -5 -82
1 -85 1 -76 15 6 11 122 3 136 -10z m55 -7 c-3 -3 -12 -4 -19 -1 -8 3 -5 6 6
6 11 1 17 -2 13 -5z m238 -19 c168 -10 216 -25 60 -19 -158 6 -217 13 -209 26
3 5 13 7 22 4 10 -3 67 -8 127 -11z m225 -271 c0 -8 -5 -12 -10 -9 -6 4 -8 11
-5 16 9 14 15 11 15 -7z m-351 -123 c-15 -5 -22 6 -14 19 6 9 10 9 16 -1 5 -8
4 -15 -2 -18z m-71 10 c6 0 12 -5 12 -10 0 -6 -27 -9 -60 -9 -37 1 -60 5 -60
12 0 9 53 13 108 7z m-122 -17 c-4 -9 -1 -23 5 -31 15 -17 7 -26 -14 -17 -17
6 -18 28 -4 52 12 17 20 15 13 -4z"/>
<path d="M14503 5233 c9 -2 23 -2 30 0 6 3 -1 5 -18 5 -16 0 -22 -2 -12 -5z"/>
<path d="M14555 5230 c-4 -6 3 -10 14 -10 25 0 27 6 6 13 -8 4 -17 2 -20 -3z"/>
<path d="M14633 5223 c9 -2 23 -2 30 0 6 3 -1 5 -18 5 -16 0 -22 -2 -12 -5z"/>
<path d="M14728 5213 c6 -2 18 -2 25 0 6 3 1 5 -13 5 -14 0 -19 -2 -12 -5z"/>
<path d="M14496 5132 c-15 -47 -22 -149 -11 -160 12 -12 20 13 26 81 7 74 -2
121 -15 79z"/>
<path d="M15230 5108 c24 -27 45 -48 47 -48 8 0 0 9 -44 50 l-48 45 45 -47z"/>
<path d="M14549 5133 c0 -5 -3 -17 -5 -28 -11 -49 -15 -233 -6 -239 14 -8 23
23 21 70 0 22 2 76 6 122 5 57 4 82 -4 82 -6 0 -11 -3 -12 -7z"/>
<path d="M14620 5111 c0 -6 4 -13 10 -16 6 -3 7 1 4 9 -7 18 -14 21 -14 7z"/>
<path d="M14609 5064 c-3 -17 -3 -36 -1 -42 5 -15 32 -16 32 -2 0 6 -4 10 -9
10 -6 0 -11 15 -13 33 l-3 32 -6 -31z"/>
<path d="M14650 5040 c0 -5 5 -10 11 -10 5 0 7 5 4 10 -3 6 -8 10 -11 10 -2 0
-4 -4 -4 -10z"/>
<path d="M15320 5016 c0 -2 8 -10 18 -17 15 -13 16 -12 3 4 -13 16 -21 21 -21
13z"/>
<path d="M12860 4970 c-13 -9 -13 -11 0 -20 18 -11 39 5 24 20 -6 6 -15 6 -24
0z"/>
<path d="M14596 4948 c-10 -40 -7 -54 14 -55 18 -2 20 3 18 38 -3 42 -22 53
-32 17z"/>
<path d="M14900 4940 c0 -5 5 -10 10 -10 6 0 10 5 10 10 0 6 -4 10 -10 10 -5
0 -10 -4 -10 -10z"/>
<path d="M14245 4919 c-4 -6 -5 -13 -2 -16 7 -7 27 6 27 18 0 12 -17 12 -25
-2z"/>
<path d="M14662 4895 c0 -16 2 -22 5 -12 2 9 2 23 0 30 -3 6 -5 -1 -5 -18z"/>
<path d="M15302 4892 c-18 -9 -31 -21 -29 -27 6 -14 -15 -33 -31 -27 -6 2 -25
-6 -41 -17 -19 -14 -32 -18 -36 -11 -10 17 -25 1 -25 -27 0 -20 4 -24 20 -20
11 3 20 1 20 -3 0 -5 78 -9 173 -8 94 0 165 2 156 5 -10 2 -19 13 -22 24 -3
13 -14 19 -31 19 -18 0 -26 6 -27 18 0 12 -2 13 -6 3 -4 -10 -9 -8 -17 8 l-12
22 -32 -30 c-19 -19 -38 -28 -47 -25 -22 9 -18 33 8 44 l22 9 -23 0 c-25 1
-26 26 -1 26 8 0 17 5 22 10 4 6 11 3 18 -7 5 -10 14 -18 19 -18 6 0 0 11 -12
25 -25 29 -23 29 -66 7z m126 -113 c-20 -13 -28 -11 -22 5 3 8 12 12 21 9 12
-5 12 -7 1 -14z"/>
<path d="M14889 4863 c-7 -20 -7 -34 3 -51 l13 -24 6 23 c19 65 0 109 -22 52z"/>
<path d="M14165 4860 c-3 -5 3 -10 15 -10 12 0 18 5 15 10 -3 6 -10 10 -15 10
-5 0 -12 -4 -15 -10z"/>
<path d="M14705 4817 c-9 -21 -13 -42 -10 -47 8 -14 55 -13 55 1 0 6 -9 8 -22
3 -21 -6 -21 -6 -5 10 19 20 21 34 7 56 -7 12 -12 7 -25 -23z"/>
<path d="M14235 4830 c4 -6 11 -8 16 -5 14 9 11 15 -7 15 -8 0 -12 -5 -9 -10z"/>
<path d="M14658 4834 c-11 -11 -10 -74 1 -74 15 0 18 12 12 48 -3 19 -9 30
-13 26z"/>
<path d="M15065 4790 c-7 -12 2 -30 16 -30 12 0 12 27 0 35 -5 3 -12 1 -16 -5z"/>
<path d="M14888 4763 c7 -3 16 -2 19 1 4 3 -2 6 -13 5 -11 0 -14 -3 -6 -6z"/>
<path d="M13516 4732 c-3 -5 19 -12 49 -15 64 -7 172 3 155 13 -18 11 -197 12
-204 2z"/>
<path d="M13749 4730 c-19 -12 17 -19 100 -19 55 0 72 2 63 11 -13 13 -144 19
-163 8z"/>
<path d="M11923 4723 c82 -2 212 -2 290 0 78 1 12 3 -148 3 -159 0 -223 -2
-142 -3z"/>
<path d="M12403 4723 c9 -2 23 -2 30 0 6 3 -1 5 -18 5 -16 0 -22 -2 -12 -5z"/>
<path d="M12958 4723 c12 -2 32 -2 45 0 12 2 2 4 -23 4 -25 0 -35 -2 -22 -4z"/>
<path d="M13073 4723 c9 -2 23 -2 30 0 6 3 -1 5 -18 5 -16 0 -22 -2 -12 -5z"/>
<path d="M14122 4719 c20 -13 271 -11 263 1 -4 7 -57 10 -142 9 -78 -1 -129
-5 -121 -10z"/>
<path d="M14633 4713 c31 -2 83 -2 115 0 31 2 5 3 -58 3 -63 0 -89 -1 -57 -3z"/>
<path d="M14818 4713 c6 -2 18 -2 25 0 6 3 1 5 -13 5 -14 0 -19 -2 -12 -5z"/>
<path d="M14875 4710 c3 -5 12 -10 20 -10 8 0 17 5 20 10 4 6 -5 10 -20 10
-15 0 -24 -4 -20 -10z"/>
<path d="M14955 4711 c34 -12 492 -14 499 -2 5 8 -69 11 -256 10 -145 0 -254
-4 -243 -8z"/>
<path d="M12498 4683 c7 -3 16 -2 19 1 4 3 -2 6 -13 5 -11 0 -14 -3 -6 -6z"/>
<path d="M13005 4680 c3 -5 8 -10 11 -10 2 0 4 5 4 10 0 6 -5 10 -11 10 -5 0
-7 -4 -4 -10z"/>
<path d="M11526 4663 c-6 -14 -5 -15 5 -6 7 7 10 15 7 18 -3 3 -9 -2 -12 -12z"/>
<path d="M14505 4610 c-8 -13 4 -32 16 -25 12 8 12 35 0 35 -6 0 -13 -4 -16
-10z"/>
<path d="M13017 4593 c-4 -3 -7 -11 -7 -17 0 -6 5 -5 12 2 6 6 9 14 7 17 -3 3
-9 2 -12 -2z"/>
<path d="M12964 4569 c-3 -6 -1 -16 5 -22 8 -8 11 -8 11 2 0 7 5 9 13 5 8 -5
8 -2 -2 9 -16 20 -18 20 -27 6z"/>
<path d="M13095 4530 c3 -5 8 -10 11 -10 2 0 4 5 4 10 0 6 -5 10 -11 10 -5 0
-7 -4 -4 -10z"/>
<path d="M12960 4523 c0 -5 11 -9 25 -9 14 -1 25 2 25 7 0 5 -11 9 -25 9 -14
0 -25 -3 -25 -7z"/>
<path d="M12919 4485 c-3 -2 -14 -6 -25 -8 -25 -3 -28 -20 -4 -29 14 -5 23 -1
31 13 10 19 8 35 -2 24z"/>
<path d="M14210 3891 c0 -6 5 -13 10 -16 6 -3 10 1 10 9 0 9 -4 16 -10 16 -5
0 -10 -4 -10 -9z"/>
<path d="M14530 3796 c0 -9 5 -16 10 -16 6 0 10 4 10 9 0 6 -4 13 -10 16 -5 3
-10 -1 -10 -9z"/>
</g>
</svg>
